<?xml version="1.0" encoding="UTF-8" standalone="yes"?>
<svg width="231" height="231" viewBox="0 0 231 231" fill="none" version="1.2" baseProfile="tiny-ps" xmlns="http://www.w3.org/2000/svg">
  <title>bimi-svg-tiny-12-ps</title>
  <rect width="230.074" height="230.074" fill="white"/>
  <rect x="20.2256" y="61.6728" width="97.3252" height="106.799" fill="#282A2E" stroke="#282A2E" stroke-width="5.05658"/>
  <line x1="135.91" y1="60.835" x2="212.376" y2="60.835" stroke="#FF6600" stroke-width="5.05658"/>
  <line x1="135.91" y1="168.472" x2="212.376" y2="168.472" stroke="#FF6600" stroke-width="5.05658"/>
  <path d="M141.12 78.614C144.098 78.1673 147.225 77.9688 150.501 77.9688C159.585 77.9688 164.151 81.3441 164.151 88.1443C164.151 91.8174 163.109 94.5971 160.975 96.4833C158.84 98.3695 155.763 99.3126 151.643 99.3126C150.601 99.3126 149.459 99.263 148.218 99.1637V109.587H141.07V78.614H141.12ZM148.268 93.7533C149.161 93.9022 150.055 93.9518 150.948 93.9518C152.983 93.9518 154.572 93.4554 155.713 92.5123C156.855 91.5692 157.401 90.2291 157.401 88.5414C157.401 85.1661 155.266 83.4784 150.948 83.4784C150.005 83.4784 149.111 83.5777 148.268 83.7266V93.7533Z" fill="#FF6600"/>
  <path d="M176.857 86.9062C180.431 86.9062 182.963 87.6012 184.502 88.9414C186.04 90.2816 186.785 92.5152 186.785 95.5927V103.584C186.785 105.619 186.983 107.605 187.43 109.541H180.928C180.679 108.25 180.58 107.208 180.481 106.414H180.382C179.637 107.506 178.595 108.349 177.304 108.995C176.014 109.64 174.673 109.938 173.234 109.938C171.1 109.938 169.412 109.342 168.121 108.151C166.831 106.96 166.186 105.322 166.186 103.237C166.186 100.805 167.228 98.8191 169.313 97.33C171.397 95.8409 174.425 95.0963 178.347 95.0963H179.935V94.9971C179.935 93.7561 179.687 92.8627 179.19 92.4159C178.694 91.9196 177.801 91.6714 176.56 91.6714C173.681 91.6714 170.901 92.3167 168.221 93.6072L167.327 88.7925C170.206 87.5515 173.383 86.9062 176.857 86.9062ZM172.39 102.641C172.39 103.386 172.638 104.031 173.085 104.428C173.532 104.875 174.177 105.073 174.971 105.073C176.411 105.073 177.552 104.627 178.495 103.733C179.439 102.84 179.885 101.748 179.885 100.358V99.3155H178.297C176.361 99.3155 174.872 99.6133 173.879 100.209C172.936 100.854 172.39 101.648 172.39 102.641Z" fill="#FF6600"/>
  <path d="M140.922 119.715H147.772V132.223H147.871C149.509 130.139 151.643 129.096 154.175 129.096C156.855 129.096 159.039 130.089 160.628 132.074C162.216 134.06 163.01 136.889 163.01 140.612C163.01 144.235 162.166 147.065 160.528 149.1C158.89 151.135 156.756 152.128 154.175 152.128C151.495 152.128 149.261 150.936 147.524 148.603H147.424L147.275 151.681H140.972V119.715H140.922ZM156.458 140.612C156.458 138.527 156.061 136.988 155.317 135.896C154.572 134.854 153.48 134.308 152.14 134.308C150.849 134.308 149.757 134.854 148.963 135.896C148.169 136.988 147.772 138.428 147.772 140.364V140.811C147.772 142.746 148.169 144.235 148.963 145.278C149.757 146.32 150.8 146.866 152.14 146.866C153.43 146.866 154.473 146.32 155.267 145.228C156.061 144.186 156.458 142.647 156.458 140.612Z" fill="#FF6600"/>
  <path d="M184.006 135.547C181.574 134.554 179.191 134.057 176.858 134.057C175.568 134.057 174.625 134.206 174.128 134.504C173.582 134.802 173.334 135.249 173.334 135.844C173.334 136.39 173.582 136.887 174.029 137.185C174.476 137.532 175.32 137.78 176.511 137.929C179.837 138.376 182.219 139.17 183.659 140.361C185.098 141.553 185.793 143.191 185.793 145.325C185.793 147.41 184.999 149.097 183.361 150.338C181.723 151.579 179.39 152.175 176.312 152.175C172.689 152.175 169.413 151.48 166.484 150.041L167.775 145.077C170.207 146.467 172.888 147.162 175.766 147.162C177.95 147.162 178.993 146.516 178.993 145.176C178.993 144.63 178.794 144.183 178.397 143.886C178 143.588 177.107 143.34 175.816 143.141C172.54 142.645 170.207 141.751 168.768 140.56C167.328 139.369 166.633 137.731 166.633 135.695C166.633 133.66 167.427 132.072 169.065 130.881C170.704 129.689 173.136 129.094 176.312 129.094C179.39 129.094 182.418 129.64 185.297 130.682L184.006 135.547Z" fill="#FF6600"/>
  <path d="M200.188 130.388H207.435V135.202H200.188V143.194C200.188 144.733 200.386 145.775 200.734 146.271C201.081 146.768 201.776 147.016 202.719 147.016C203.96 147.016 205.201 146.768 206.541 146.321L207.286 151.285C205.251 151.831 203.166 152.129 201.031 152.129C198.301 152.129 196.316 151.533 195.025 150.292C193.735 149.051 193.139 147.066 193.139 144.336V135.202H188.672V130.388H193.238V122.297H200.188V130.388Z" fill="#FF6600"/>
  <path d="M55.6575 88.1205L55.8561 96.0624H56.0546C58.2883 93.2331 61.0183 91.0491 64.195 89.4607C67.3718 87.8723 70.6975 87.0781 74.1224 87.0781C86.0849 87.0781 92.091 95.1689 92.091 111.4V143.118H81.7168V112.443C81.7168 106.039 80.873 101.622 79.235 99.2888C77.597 96.9062 74.6188 95.7646 70.3996 95.7646C66.8258 95.7646 63.5498 97.5515 60.5716 101.125C57.5933 104.699 56.1539 108.819 56.1539 113.535V143.118H45.6309V88.1205H55.6575Z" fill="white"/>
</svg>