<?xml version="1.0" encoding="utf-8"?>
<!-- Generator: Adobe Illustrator 23.0.1, SVG Export Plug-In . SVG Version: 6.00 Build 0)  -->
<svg version="1.1" id="Lag_1" xmlns="http://www.w3.org/2000/svg" xmlns:xlink="http://www.w3.org/1999/xlink" x="0px" y="0px"
	 viewBox="0 0 563 418.1" style="enable-background:new 0 0 563 418.1;" xml:space="preserve">
<style type="text/css">
	.st0{fill:#FFFFFF;}
</style>
<path class="st0" d="M35.8,379.4l-12.9,35.8c0,1.4-1.4,1.4-1.4,1.4H1.4c-1.4,0-1.4,0-1.4-1.4c11.5-30.1,28.7-81.7,41.5-116
	c0-1.4,1.4-4.3,1.4-11.5c0-1.4,0-1.4,1.4-1.4h27.2c1.4-1.4,1.4,0,1.4,0c14.3,41.5,31.5,86,45.8,127.5c0,1.4,0,1.4-1.4,1.4H94.6
	c-1.4,0-1.4,0-1.4-1.4L80.2,378H35.8L35.8,379.4z M75.9,359.4c-4.3-12.9-14.3-40.1-17.2-54.4c-2.9,12.9-11.5,35.8-17.2,54.4H75.9z
	 M131.8,368c0-28.7,21.5-51.6,55.9-51.6c4.3,0,8.6,0,11.5,1.4v-43c0-1.4,0-1.4,1.4-1.4h21.5c1.4,0,1.4,0,1.4,1.4v130.4
	c0,1.4,0,1.4-1.4,1.4c-12.9,5.7-27.2,10-40.1,10C151.9,418.1,131.8,402.4,131.8,368L131.8,368z M197.7,337.9
	c-2.9-1.4-7.2-1.4-11.5-1.4c-18.6,0-30.1,11.5-30.1,31.5c0,22.9,12.9,31.5,28.7,31.5c4.3,0,10-1.4,14.3-1.4v-60.2H197.7z
	 M343.8,366.5c0,31.5-20.1,51.6-48.7,51.6c-34.4,0-48.7-25.8-48.7-50.1c0-30.1,20-50.1,50.1-50.1
	C326.6,316.4,343.8,339.3,343.8,366.5L343.8,366.5z M270.8,366.5c0,20,8.6,32.9,24.3,32.9c12.9,0,22.9-8.6,22.9-32.9
	c0-18.6-7.2-33-24.4-33C280.8,335,270.8,346.5,270.8,366.5z M386.8,274.8c1.4,0,1.4,0,1.4,1.4v45.8c7.2-2.9,14.3-4.3,21.5-4.3
	c27.2,0,44.4,20.1,44.4,45.8c0,34.4-27.2,55.9-58.7,55.9c-10,0-20-1.4-30.1-4.3c-1.4,0-1.4-1.4-1.4-1.4V276.3c0-1.4,0-1.4,1.4-1.4
	H386.8z M405.4,336.4c-5.7,0-11.5,1.4-15.8,2.9V398c2.9,1.4,7.2,1.4,11.5,1.4c14.3,0,31.5-11.5,31.5-34.4
	C431.2,346.5,419.8,336.4,405.4,336.4z M500,372.3c0,15.8,10,25.8,30.1,25.8c7.2,0,15.8-1.4,24.4-4.3c0,0,1.4,0,1.4,1.4v15.8
	c0,1.4,0,1.4-1.4,2.9c-7.2,4.3-17.2,5.7-30.1,5.7c-35.8,0-50.1-24.3-50.1-50.1c0-28.6,17.2-51.6,47.3-51.6
	c30.1,0,41.5,22.9,41.5,41.5c0,8.6-1.4,12.9-1.4,12.9L500,372.3L500,372.3z M531.5,356.5c7.2,0,8.6-1.4,8.6-1.4v-2.9
	c0-5.7-4.3-18.6-20.1-18.6c-12.9,0-20,10-21.5,22.9H531.5z"/>
<path class="st0" d="M306.6,0l100.3,239.3V0H306.6z M136.1,0v239.3L236.4,0H136.1z M227.8,190.5h45.8l20.1,48.7h41.5L270.8,87.4
	L227.8,190.5z"/>
</svg>
