<?xml version="1.0" encoding="utf-8"?>
<!-- Generator: Adobe Illustrator 23.0.1, SVG Export Plug-In . SVG Version: 6.00 Build 0)  -->
<svg version="1.1" id="Logo" xmlns="http://www.w3.org/2000/svg" xmlns:xlink="http://www.w3.org/1999/xlink" x="0px" y="0px"
	 viewBox="0 0 1216.6 899.3" style="enable-background:new 0 0 1216.6 899.3;" xml:space="preserve">
<style type="text/css">
	.st0{clip-path:url(#SVGID_2_);}
	.st1{clip-path:url(#SVGID_4_);}
	.st2{fill:#FFFFFF;}
</style>
<title>CM_Logo</title>
<g id="Logo_White_Stack_1">
	<g>
		<defs>
			<rect id="SVGID_1_" width="1216.6" height="899.3"/>
		</defs>
		<clipPath id="SVGID_2_">
			<use xlink:href="#SVGID_1_"  style="overflow:visible;"/>
		</clipPath>
		<g class="st0">
			<g>
				<defs>
					<rect id="SVGID_3_" width="1216.6" height="899.3"/>
				</defs>
				<clipPath id="SVGID_4_">
					<use xlink:href="#SVGID_3_"  style="overflow:visible;"/>
				</clipPath>
				<g class="st1">
					<path class="st2" d="M899.2,403.7c-10.1,0-17.9,2.2-17.9,11.5v9.1c0,9.3,7.8,11.8,17.9,11.8s17.9-2.4,17.9-11.8v-9.1
						C917.1,405.9,909.3,403.7,899.2,403.7"/>
					<path class="st2" d="M906.5,454.4h-14.2c-4.7,0-8.6,3.8-8.6,8.5c0,0,0,0,0,0v122.4c0,4.7,3.8,8.6,8.6,8.6h14.2
						c4.7,0,8.5-3.8,8.5-8.6V462.9C915,458.2,911.2,454.4,906.5,454.4"/>
					<path class="st2" d="M490.4,453c-20.7,0-35.2,9.1-46.1,23.6C437,462,423,453,403.3,453c-21,0-32.9,11.4-41.7,23.6v-13.6
						c0-4.7-3.8-8.5-8.5-8.5c0,0,0,0,0,0h-14.3c-4.7,0-8.5,3.8-8.5,8.5c0,0,0,0,0,0v122.4c0,4.7,3.8,8.6,8.5,8.6c0,0,0,0,0,0H353
						c4.7,0,8.5-3.8,8.5-8.5c0,0,0,0,0,0v-69.9c0-21,11.9-34,29.3-34s27.7,11.9,27.7,33.2v70.7c0,4.7,3.8,8.6,8.6,8.6h14.2
						c4.7,0,8.5-3.8,8.5-8.5c0,0,0,0,0,0v-69.9c0-22,12.2-34,29.3-34c17.6,0,27.7,11.7,27.7,33.4v70.5c0,4.7,3.8,8.6,8.5,8.6h14.2
						c4.7,0,8.5-3.8,8.5-8.5c0,0,0,0,0,0v-80C538.2,471.9,520.1,453,490.4,453"/>
					<path class="st2" d="M93.6,440.1c13.5,0,26.6,4.4,37.3,12.5c3.3,2.5,7.9,2.2,10.8-0.7l11-11c3.2-3.2,3.1-8.5-0.1-11.7
						c-0.2-0.2-0.4-0.4-0.6-0.6c-16.5-13.3-37.2-20.5-58.4-20.4C41.9,408.3,0,450.2,0,501.9s41.9,93.6,93.6,93.6
						c21.2,0.1,41.8-7.1,58.4-20.4c3.5-2.8,4.1-8,1.3-11.6c-0.2-0.2-0.4-0.5-0.6-0.7l-11-11c-1.5-1.5-3.6-2.4-5.8-2.4
						c-1.8,0-3.6,0.6-5,1.7c-10.7,8.2-23.8,12.6-37.3,12.5c-34.1-0.4-61.5-28.5-61-62.6C32.9,467.6,60,440.5,93.6,440.1"/>
					<path class="st2" d="M1063.2,454.4H1049c-4.7,0-8.6,3.8-8.6,8.5c0,0,0,0,0,0v13.7c-10.1-14.3-24.3-23.6-46.6-23.6
						c-32.1,0-63.5,25.4-63.5,71v0.5c0,45.3,31.1,71,63.5,71c22.8,0,37-10.5,46.6-23.2l0.2-0.3v12.7c0,23.6-18.2,45.2-43.6,45.2
						c-15.6,0-29.9-7.2-37-19.4c-2.5-4-7.7-5.3-11.7-2.9l-6,4c-4,2.4-5.3,7.7-2.9,11.8c11.8,19.2,32.7,32,59.1,32
						c45.3,0,73.3-32.4,73.3-71.2V462.9C1071.8,458.2,1068,454.4,1063.2,454.4L1063.2,454.4 M1037.6,524.6c0,26.2-18,43.8-38.5,43.8
						c-20.7,0-37-16.9-37-43.8v-0.5c0-26.4,16.5-43.8,37-43.8s38.5,17.6,38.5,43.8V524.6z"/>
					<path class="st2" d="M1167.9,453.1c-21.3,0-34,10.8-42.8,23.5v-13.6c0-4.7-3.8-8.5-8.6-8.5c0,0,0,0,0,0h-14.2
						c-4.7,0-8.5,3.8-8.5,8.5v122.4c0,4.7,3.8,8.5,8.5,8.6h14.2c4.7,0,8.6-3.8,8.6-9.8v-73.7c0-16.6,13.4-30.1,30-30.1
						c16.6,0,30.1,13.4,30.1,30c0,0,0,0,0,0v75c0,4.7,3.8,8.5,8.5,8.6h14.2c4.7,0,8.6-3.8,8.6-8.5c0,0,0,0,0,0v-79.9
						C1216.6,473.8,1198.7,453.1,1167.9,453.1"/>
					<path class="st2" d="M638.3,453.1c-22.3,0-36.5,9.2-46.6,23.5v-13.6c0-4.7-3.8-8.5-8.5-8.5h-14.2c-4.7,0-8.5,3.8-8.5,8.5v179.7
						c0,4.7,3.8,8.6,8.5,8.6l0,0h14.2c4.7,0,8.6-3.8,8.5-8.6l0,0v-70.5c9.6,12.7,23.8,23.5,46.6,23.5c32.4,0,63.5-25.7,63.5-71v-0.5
						C701.8,478.5,670.4,453.1,638.3,453.1 M669.9,524.6c0,26.2-18,43.8-38.4,43.8c-20.7,0-37-16.9-37-43.8V524
						c0-26.4,16.5-43.8,37-43.8s38.4,17.6,38.4,43.8V524.6z"/>
					<path class="st2" d="M309.6,571.8L309.6,571.8c-3.3,0-6-2.7-6-6V462.9c0-4.7-3.8-8.5-8.5-8.5h-14.3c-4.7,0-8.5,3.8-8.5,8.5
						v13.6c-10.1-14.3-24.4-23.5-46.6-23.5c-32.1,0-63.5,25.4-63.5,71v0.5c0,45.3,31.1,71,63.5,71c23.5,0,40-10.5,47.2-23.5
						c3.7,12.9,15.5,21.8,28.9,21.8h8c3.3,0,6-2.7,6-6v-10.1C315.6,574.5,312.9,571.8,309.6,571.8
						C309.6,571.8,309.6,571.8,309.6,571.8 M269.4,524.6c0,26.2-18,43.8-38.4,43.8c-20.7,0-37-16.9-37-43.8v-0.5
						c0-26.4,16.5-43.8,37-43.8s38.4,17.6,38.4,43.8V524.6z"/>
					<path class="st2" d="M862.6,571.8L862.6,571.8c-3.3,0-6-2.7-6-6V462.9c0-4.7-3.8-8.5-8.5-8.5h-14.3c-4.7,0-8.5,3.8-8.5,8.5
						v13.6c-10.1-14.3-24.4-23.5-46.6-23.5c-32.1,0-63.5,25.4-63.5,71v0.5c0,45.3,31.1,71,63.5,71c23.5,0,40-10.5,47.2-23.5
						c3.7,12.9,15.5,21.8,28.9,21.8h8c3.3,0,6-2.7,6-6v-10.1C868.7,574.5,866,571.8,862.6,571.8 M822.5,524.6
						c0,26.2-18,43.8-38.5,43.8c-20.7,0-37-16.9-37-43.8v-0.5c0-26.4,16.5-43.8,37-43.8s38.5,17.6,38.5,43.8V524.6z"/>
					<path class="st2" d="M686,699.5c-10.5,0-18.6,2.2-18.6,12v9.5c0,9.7,8.1,12.2,18.6,12.2s18.6-2.5,18.6-12.2v-9.5
						C704.6,701.8,696.5,699.5,686,699.5"/>
					<path class="st2" d="M693.5,752.2h-14.8c-4.9,0-8.9,4-8.9,8.9c0,0,0,0,0,0v127.4c0,4.9,4,8.9,8.9,8.9h14.8c4.9,0,8.9-4,8.9-8.9
						l0,0V761.1C702.4,756.2,698.4,752.3,693.5,752.2C693.5,752.2,693.5,752.2,693.5,752.2"/>
					<path class="st2" d="M596.2,750.9c-22.1,0-35.3,11.2-44.5,24.4v-14.2c0-4.9-4-8.9-8.9-8.9H528c-4.9,0-8.9,4-8.9,8.9v127.4
						c0,4.9,4,8.9,8.9,8.9h14.8c4.9,0,8.9-4,8.9-10.2v-76.7c-0.3-17.3,13.4-31.5,30.7-31.8c17.3-0.3,31.5,13.4,31.8,30.7
						c0,0.4,0,0.7,0,1.1v78c0,4.9,4,8.9,8.9,8.9H638c4.9,0,8.9-4,8.9-8.9v-83.1C646.9,772.5,628.3,750.9,596.2,750.9"/>
					<path class="st2" d="M1069.7,752.6c-0.4-0.2-0.7-0.3-0.9-0.4c-0.4-0.1-0.7-0.2-1.1-0.3c-19.5-4.3-39.3,5.3-48,23.3v-14
						c0-4.9-4-8.9-8.9-8.9l0,0h-14.9c-4.9,0-8.9,4-8.9,8.9v127.4c0,4.9,4,8.9,8.9,8.9h14.8c4.9,0,8.9-4,8.9-8.9v-53.9
						c0-43.5,22.7-51.4,35.8-50.3c2.6,0.2,4.8,0.6,6.8,0.8l1.1,0.1h0.6c3,0,5.5-2.1,6.2-5l3.3-21c0.1-0.3,0.1-0.7,0.1-1
						C1073.3,755.8,1071.9,753.5,1069.7,752.6"/>
					<path class="st2" d="M427,750.9c-43.7,0-75.8,33.2-75.8,73.9v0.7c0,40.7,32.1,73.9,75.8,73.9s75.8-33.2,75.8-73.9v-0.7
						C502.8,784,470.7,750.9,427,750.9 M469.6,825.1v0.5c0,24.9-17.3,45-42.6,45.3c-25.3-0.3-42.6-20.4-42.6-45.3v-0.9
						c0-24.9,17.3-45,42.6-45.3c25.3,0.3,42.6,20.4,42.6,45.3V825.1z"/>
					<path class="st2" d="M894.3,750.9c-43.7,0-75.8,33.2-75.8,73.9v0.7c0,40.7,32.1,73.9,75.8,73.9s75.7-33.2,75.7-73.9v-0.7
						C970,784,937.9,750.9,894.3,750.9 M936.9,825.1v0.5c0,24.9-17.3,45-42.7,45.3c-25.3-0.3-42.6-20.4-42.6-45.3v-0.9
						c0-24.9,17.3-45,42.6-45.3c25.3,0.3,42.7,20.4,42.7,45.3V825.1z"/>
					<path class="st2" d="M325.5,706.3h-14.9c-2.8,0-5.4,1.3-7.1,3.6l-61.3,83.8l-61.3-83.8c-1.7-2.2-4.3-3.6-7.1-3.6h-14.9
						c-4.9,0-8.9,4-8.9,8.9v173.4c0,4.9,4,8.9,8.9,8.9h14.8c4.9,0,8.9-4,8.9-8.9V768.3l54.2,69.5c0,0.1,0.1,0.1,0.1,0.2l0.4,0.5l0,0
						c2.3,2.7,6.4,3,9.1,0.6c0.2-0.2,0.4-0.4,0.6-0.6l0,0l0.4-0.5l0.1-0.2l54.1-69.5v120.2c0,4.9,4,8.9,8.9,8.9h14.8
						c4.9,0,8.9-4,8.9-8.9V715.2C334.3,710.3,330.3,706.3,325.5,706.3"/>
					<polygon class="st2" points="242.1,840.7 242.1,840.7 242.1,840.7 					"/>
					<path class="st2" d="M802.4,752.2h-31v-39.8l0,0c0-3.5-2.9-6.3-6.3-6.2c-1.3,0-2.5,0.4-3.6,1.1l0,0L746,718.3
						c-4.5,3.1-7.2,8.2-7.2,13.7v20.3h-10.5c-4.9,0-8.9,4-8.9,8.9v9.2c0,4.9,4,8.9,8.9,8.9h10.5v78.3c0,31.3,17,41.8,41,41.8
						c12.7,0,25.8-4.9,25.8-4.9s4.4-1.3,3.3-6.5c-0.4-1.8-2.6-14-2.6-14c-0.5-3-1.8-5.3-6-4.7c-3.7,0.6-7.5,1-11.3,1
						c-11,0-17.5-5.1-17.5-17.8v-73.2h31c4.9,0,8.9-4,8.9-8.9c0,0,0,0,0,0v-9.2C811.3,756.2,807.3,752.3,802.4,752.2
						C802.4,752.3,802.4,752.3,802.4,752.2"/>
					<path class="st2" d="M816.4,6.8c-5.1-7.2-15-9-22.3-4c0,0,0,0,0,0l-393,275.2c3,4.3,7.9,6.8,13.1,6.8h389.1c8.8,0,16-7.2,16-16
						V15.8C819.2,12.6,818.2,9.5,816.4,6.8"/>
					<path class="st2" d="M423.5,2.9c-7.2-5.1-17.2-3.4-22.3,3.9c-1.9,2.6-2.9,5.8-2.9,9v253.6l187.1-153.3L423.5,2.9z"/>
				</g>
			</g>
		</g>
	</g>
</g>
</svg>
