<?xml version="1.0" encoding="utf-8"?>
<!-- Generator: Adobe Illustrator 23.0.1, SVG Export Plug-In . SVG Version: 6.00 Build 0)  -->
<svg version="1.1" id="Lag_1" xmlns="http://www.w3.org/2000/svg" xmlns:xlink="http://www.w3.org/1999/xlink" x="0px" y="0px"
	 viewBox="0 0 40 40" style="enable-background:new 0 0 40 40;" xml:space="preserve">
<style type="text/css">
	.st0{fill-rule:evenodd;clip-rule:evenodd;fill:#FFFFFF;}
</style>
<path class="st0" d="M37,25.3c0.6,0,1.5,0.7,1.5,2.3c0,1.6-0.7,3.4-0.8,3.8c-2.4,5.7-8,8.9-14.7,8.6c-6.2-0.2-11.6-3.5-13.9-8.9
	c-1.5,0-2.9-0.6-4-1.6c-1.1-1-1.8-2.3-2-3.8c-0.1-1,0-2,0.4-3l-1.3-1.1c-6-5.1,12.8-26,18.7-20.8l2,2l1.1-0.5
	c5.3-2.2,9.5-1.1,9.5,2.4c0,1.8-1.2,3.9-3,5.9c0.7,0.6,1.2,1.6,1.5,2.7c0.2,0.8,0.3,1.7,0.3,2.2l0.1,2.5l0.7,0.2
	c1.4,0.4,2.4,0.9,2.9,1.5c0.5,0.5,0.7,1,0.8,1.6c0.1,0.8-0.1,1.6-0.5,2.3c0,0,0.2,0.4,0.3,0.9L37,25.3L37,25.3z M37.1,28.1
	c0.2-1-0.1-1.3-0.3-1.5c-0.3-0.2-0.7-0.1-0.7-0.1s-0.2-1.1-0.6-2.2c-1.4,1-2.9,1.8-4.5,2.3c-1.6,0.5-3.7,0.8-6,0.6
	c-1.3-0.1-2.2-0.5-2.5,0.6c3,1.1,6.2,0.6,6.2,0.6c0.1,0,0.1,0,0.1,0.1c0,0,0,0.1-0.1,0.1c0,0-2.4,1.1-6.3-0.1c0.1,0.9,1,1.3,1.4,1.5
	c0.5,0.2,1.1,0.3,1.1,0.3c4.8,0.8,9.3-1.9,10.3-2.6c0.1,0,0.1,0,0.1,0.1L35.1,28c-1.2,1.6-4.5,3.5-8.9,3.5c-1.9,0-3.8-0.7-4.5-1.7
	c-1.1-1.6-0.1-3.9,1.7-3.7l0.8,0.1c2.8,0.3,5.6-0.2,8.1-1.3c2.4-1.1,3.4-2.4,3.2-3.4c0-0.3-0.2-0.6-0.4-0.8
	c-0.7-0.6-1.5-0.9-2.3-1.1c-0.4-0.1-0.7-0.2-0.9-0.3c-0.5-0.2-0.8-0.3-0.8-1.2L31,15.6c0-1.1-0.2-2.5-1-3.1
	c-0.2-0.2-0.5-0.2-0.8-0.2c-0.3,0-0.4,0-0.5,0.1c-0.5,0.1-0.8,0.4-1.2,0.7c-0.8,0.8-1.9,1.1-3.1,1c-0.6,0-1.3-0.1-2-0.2l-0.4,0
	c-1.7-0.1-3.6,1.4-3.9,3.6c-0.4,3,1.7,4.5,2.3,5.4c0.1,0.1,0.2,0.3,0.2,0.4c0,0.2-0.1,0.3-0.2,0.4c-2,2.2-2.5,5.3-1.4,8
	c1.6,3.7,6.4,5.4,11.2,3.8c0.6-0.2,1.2-0.5,1.8-0.8c1.1-0.5,2-1.2,2.8-2.1C36,31.4,36.8,29.8,37.1,28.1z M29.2,18.9
	c-0.3-0.4-0.4-0.8-0.5-1.3c-0.2-1-0.2-1.6,0.4-1.7c0.6-0.1,0.8,0.5,1,1.4c0.1,0.6,0.1,1.2,0,1.6C29.8,18.9,29.5,18.9,29.2,18.9
	L29.2,18.9z M24.5,19.7c-0.4-0.2-0.9-0.4-1.5-0.3c-0.9,0.1-1.6,0.5-1.9,0.4c-0.1,0-0.1,0-0.1-0.1c0-0.2,0.2-0.4,0.5-0.6
	c0.8-0.6,1.8-0.7,2.7-0.3c0.4,0.2,0.8,0.5,1,0.8c0.1,0.1,0.1,0.3,0,0.3C25.1,19.9,24.8,19.8,24.5,19.7z M23.7,20.1
	c0.7-0.1,1.2,0.2,1.4,0.5c0,0.1,0,0.1,0,0.2c-0.1,0.1-0.2,0.1-0.4,0c-0.6-0.1-1.1,0-1.7,0.2c0,0-0.3,0.1-0.4,0.1
	c-0.1,0-0.1-0.1-0.1-0.1v0c0-0.1,0.1-0.3,0.2-0.4C22.9,20.4,23.1,20.2,23.7,20.1L23.7,20.1z M27.6,21.8c-0.4-0.2-0.5-0.5-0.4-0.8
	c0.1-0.3,0.5-0.3,0.9-0.1c0.4,0.2,0.5,0.5,0.4,0.8C28.3,21.9,28,22,27.6,21.8z M29.9,19.8c0.3,0,0.5,0.3,0.5,0.7
	c0,0.4-0.2,0.7-0.5,0.7c-0.3,0-0.5-0.3-0.5-0.7C29.3,20.1,29.6,19.8,29.9,19.8z M15.1,11.2c-0.1,0.1,0,0.1,0.1,0.1
	C18.6,8.9,23,8,27.1,8.9c0.1,0,0.1-0.1,0-0.1c-1-0.6-2.5-0.9-3.6-1c-0.1,0-0.1-0.1,0-0.1c0.2-0.3,0.4-0.5,0.7-0.7c0,0,0-0.1,0-0.1
	c-1.5,0.1-3.3,0.8-4.3,1.5c0,0-0.1,0-0.1-0.1C19.7,8,20,7.5,20.1,7.3c0-0.1,0-0.1-0.1-0.1C18.1,8.2,16.5,9.6,15.1,11.2z M7.4,19.4
	c1.7-4.6,4.6-8.9,8.4-11.8c2.8-2.3,5.8-4,5.8-4s-1.6-1.9-2.1-2c-3-0.8-9.6,3.7-13.8,9.7c-1.7,2.4-4.1,6.7-3,8.9c0.1,0.3,1,1,1.4,1.3
	C4.9,20.4,6,19.7,7.4,19.4z M9.6,29.6c2.2-0.4,2.8-2.8,2.4-5.1c-0.4-2.7-2.2-3.6-3.4-3.7c-0.3,0-0.7,0-0.9,0.1
	c-2.2,0.4-3.4,2.3-3.2,4.7c0.2,2.2,2.4,4,4.4,4C9.2,29.6,9.4,29.6,9.6,29.6z M10.4,26.9c0.1,0,0.2-0.1,0.3,0c0,0,0.1,0.1,0,0.2
	c-0.1,0.2-0.4,0.4-0.9,0.4c-0.5,0-1-0.4-1.1-1.2c0-0.4,0.1-0.9,0.2-1.2c0.2-0.6,0-1.2-0.6-1.5c-0.2-0.1-0.5-0.1-0.7-0.1
	c-0.3,0.1-0.5,0.2-0.7,0.5c-0.1,0.2-0.2,0.5-0.3,0.7c-0.1,0.3-0.2,0.4-0.4,0.3c-0.1,0-0.1,0-0.2-0.2c-0.1-0.3,0-1.3,0.6-2
	c0.4-0.5,1-0.7,1.6-0.6c0.6,0.1,1.2,0.5,1.5,1.1c0.4,0.8,0.1,1.7-0.2,2.2l-0.1,0.1c-0.1,0.3-0.2,0.6,0,0.8c0.1,0.1,0.3,0.2,0.5,0.2
	C10.3,26.9,10.4,26.9,10.4,26.9z"/>
</svg>
