<?xml version="1.0" encoding="utf-8"?>
<!-- Generator: Adobe Illustrator 23.0.1, SVG Export Plug-In . SVG Version: 6.00 Build 0)  -->
<svg version="1.1" id="Layer_1" xmlns="http://www.w3.org/2000/svg" xmlns:xlink="http://www.w3.org/1999/xlink" x="0px" y="0px"
	 viewBox="0 0 262 184" style="enable-background:new 0 0 262 184;" xml:space="preserve">
<style type="text/css">
	.st0{fill:#FFFFFF;}
</style>
<title>logo-salesforce</title>
<desc>Created with Sketch.</desc>
<g>
	<path class="st0" d="M164.3,78.3c-2,0-3.4,0.7-4.3,2.1c-0.9,1.4-1.4,3.4-1.4,6c0,2.6,0.5,4.6,1.4,6.1c0.9,1.4,2.3,2.1,4.3,2.1
		s3.4-0.7,4.3-2.1c1-1.4,1.4-3.5,1.4-6.1c0-2.6-0.5-4.6-1.4-6C167.7,79,166.2,78.3,164.3,78.3z"/>
	<path class="st0" d="M224.3,78.2c-2,0-3.4,0.8-4.3,2.2c-0.6,0.9-0.9,2.1-1.2,3.6h10.7c-0.1-1.4-0.4-2.6-1-3.6
		C227.6,79,226.3,78.2,224.3,78.2z"/>
	<path class="st0" d="M65.6,88.1c-0.9,0.6-1.3,1.6-1.3,2.9c0,0.8,0.2,1.5,0.5,2c0.1,0.2,0.2,0.4,0.8,0.8c0,0,1.4,1.1,4.4,0.9
		c2.2-0.1,4.1-0.5,4.1-0.5v-6.9c0,0-1.9-0.3-4.1-0.3C66.9,87,65.6,88.1,65.6,88.1z"/>
	<path class="st0" d="M205,25.7c-8.1,0-15.8,1.7-22.7,4.8c-8-14.2-22.9-23.8-40.1-23.8c-12.9,0-24.6,5.5-33,14.2
		C100,8.8,85.4,1,69,1C41.2,1,18.5,23.6,18.6,51.3c0,7.2,1.5,14,4.2,20.1c-13,7.6-21.7,21.8-21.7,38c0,24.3,19.4,43.9,43.4,43.9
		c3,0,6-0.3,8.9-0.9C60,170.3,77.2,183,97.3,183c19.3,0,35.9-11.8,43-28.5c5.4,2.6,11.5,4.1,17.9,4.1c15.4,0,28.8-8.5,35.8-21
		c3.5,0.7,7.2,1.1,11,1.1c30.9,0,56-25.3,56-56.5C261,51,236,25.7,205,25.7z M56.7,91.4c0,4.6-3.3,7.4-8.6,7.4
		c-2.6,0-5.1-0.4-7.8-1.8c-0.5-0.3-1-0.5-1.5-0.9c-0.1-0.2-0.3-0.3-0.1-0.7l1.1-2.9c0.2-0.5,0.5-0.3,0.7-0.2
		c0.3,0.2,0.5,0.3,0.9,0.6c3.1,2,6,2,6.9,2c2.3,0,3.8-1.2,3.8-2.9v-0.1c0-1.8-2.2-2.5-4.8-3.3l-0.6-0.2c-3.5-1-7.3-2.5-7.3-6.9v-0.1
		c0-4.2,3.4-7.2,8.3-7.2h0.5c2.9,0,5.6,0.8,7.6,2.1c0.2,0.1,0.4,0.3,0.3,0.6c-0.1,0.3-1,2.6-1.1,2.9c-0.2,0.5-0.7,0.2-0.7,0.2
		c-1.8-1-4.5-1.7-6.8-1.7c-2.1,0-3.4,1.1-3.4,2.6V81c0,1.7,2.3,2.5,4.9,3.3l0.5,0.1c3.5,1.1,7.2,2.6,7.2,6.9V91.4z M78.8,96.7
		c0,0,0,0.4-0.3,0.5c0,0-0.6,0.2-1.1,0.3s-2.3,0.5-3.8,0.7c-1.5,0.3-3,0.4-4.6,0.4c-1.5,0-2.8-0.1-4-0.4s-2.2-0.7-3.1-1.3
		c-0.8-0.6-1.5-1.4-2-2.4c-0.5-0.9-0.7-2.1-0.7-3.4c0-1.3,0.3-2.5,0.8-3.5s1.3-1.8,2.2-2.5c0.9-0.7,2-1.1,3.1-1.5
		c1.2-0.3,2.4-0.5,3.7-0.5c1.2,0.1,2,0.1,2.6,0.1c0,0,1.2,0.1,2.5,0.3v-0.6c0-2-0.4-3-1.2-3.6c-0.8-0.6-2.1-1-3.7-1
		c0,0-3.7,0-6.6,1.5c-0.1,0.1-0.2,0.1-0.2,0.1S62,80,61.9,79.7l-1.1-2.9c-0.2-0.4,0.1-0.6,0.1-0.6c1.4-1.1,4.6-1.7,4.6-1.7
		c1.1-0.2,2.9-0.4,4-0.4c3,0,5.3,0.7,6.9,2.1c1.6,1.4,2.4,3.6,2.4,6.7V96.7z M88.6,97.6c0,0.3-0.2,0.5-0.4,0.5h-4
		c-0.3,0-0.4-0.2-0.4-0.5V65.5c0-0.2,0.2-0.5,0.4-0.5h4c0.3,0,0.4,0.2,0.4,0.5V97.6z M113.6,87.3c0,0.4-0.4,0.4-0.4,0.4H98.1
		c0.1,2.3,0.6,3.9,1.8,5c1.1,1.1,2.8,1.8,5.2,1.8c3.6,0,5.1-0.7,6.2-1.1c0,0,0.4-0.1,0.6,0.3l1,2.8c0.2,0.5,0,0.6-0.1,0.7
		c-0.9,0.5-3.2,1.5-7.6,1.5c-2.1,0-4-0.3-5.5-0.9c-1.5-0.6-2.8-1.4-3.8-2.5c-1-1.1-1.7-2.4-2.2-3.8C93.2,90,93,88.4,93,86.7
		s0.2-3.3,0.7-4.8c0.4-1.5,1.1-2.8,2-3.9c0.9-1.1,2.1-2,3.5-2.6c1.4-0.7,3.1-1,5-1c1.6,0,3.1,0.3,4.3,0.9c0.9,0.4,1.9,1.1,2.9,2.2
		c0.4,0.4,1.4,1.9,1.7,3.3C114.1,84.2,113.6,87.1,113.6,87.3z M126.1,98.8c-2.6,0-5.1-0.4-7.8-1.8c-0.5-0.3-1-0.5-1.5-0.9
		c0-0.2-0.2-0.3-0.1-0.7l1.1-2.9c0.2-0.5,0.6-0.3,0.7-0.2c0.3,0.2,0.5,0.3,0.9,0.6c3.1,2,6,2,6.9,2c2.3,0,3.8-1.2,3.8-2.9v-0.1
		c0-1.8-2.2-2.5-4.8-3.3l-0.6-0.2c-3.5-1-7.3-2.5-7.3-6.9v-0.1c0-4.2,3.4-7.2,8.3-7.2h0.5c2.9,0,5.6,0.8,7.6,2.1
		c0.2,0.1,0.4,0.3,0.3,0.6c-0.1,0.3-1,2.6-1.1,2.9c-0.2,0.5-0.7,0.2-0.7,0.2c-1.8-1-4.5-1.7-6.8-1.7c-2.1,0-3.4,1.1-3.4,2.6V81
		c0,1.7,2.3,2.5,4.9,3.3l0.5,0.1c3.5,1.1,7.2,2.6,7.2,6.9v0.1C134.7,96,131.4,98.8,126.1,98.8z M152.3,78.3
		c-0.1,0.5-0.5,0.4-0.5,0.4h-5L143.6,98c-0.4,2-0.8,3.7-1.3,5.1c-0.5,1.4-1.1,2.4-2,3.4c-0.8,0.9-1.7,1.6-2.8,1.9
		c-1,0.4-2.3,0.6-3.7,0.6c-0.7,0-1.4,0-2.2-0.2c-0.6-0.1-0.9-0.2-1.4-0.4c-0.2-0.1-0.3-0.3-0.2-0.6c0.1-0.3,1-2.7,1.1-3.1
		c0.2-0.4,0.5-0.2,0.5-0.2c0.3,0.1,0.5,0.2,0.8,0.3c0.4,0.1,0.8,0.1,1.2,0.1c0.7,0,1.3-0.1,1.8-0.3c0.6-0.2,1-0.6,1.4-1.1
		c0.4-0.5,0.7-1.2,1.1-2.1c0.3-0.9,0.6-2.2,0.9-3.7l3.4-18.9h-3.3c-0.4,0-0.5-0.2-0.5-0.5l0.6-3.1c0.1-0.5,0.5-0.4,0.5-0.4h3.4
		l0.2-1c0.5-3,1.5-5.3,3-6.8s3.7-2.3,6.4-2.3c0.8,0,1.5,0.1,2.1,0.2c0.4-0.1,0.9,0,1.4,0.2c0.1,0,0.4,0.2,0.3,0.5l-1.2,3.2
		c-0.1,0.2-0.2,0.4-0.7,0.2c-0.1,0-0.3-0.1-0.8-0.2c-0.3-0.1-0.8-0.1-1.2-0.1c-0.6,0-1.1,0.1-1.6,0.2c-0.5,0.1-0.9,0.4-1.3,0.8
		c-0.4,0.4-0.8,0.9-1.1,1.6c-0.6,1.6-0.8,3.3-0.8,3.4h4.8c0.4,0,0.5,0.2,0.5,0.5L152.3,78.3z M174.5,91.3c-0.4,1.5-1.1,2.8-2,3.9
		c-0.9,1.1-2.1,2-3.4,2.6c-1.4,0.6-3,0.9-4.8,0.9c-1.8,0-3.4-0.3-4.8-0.9c-1.4-0.6-2.5-1.5-3.4-2.6c-0.9-1.1-1.6-2.4-2-3.9
		c-0.4-1.5-0.7-3.1-0.7-4.8s0.2-3.3,0.7-4.8c0.4-1.5,1.1-2.8,2-3.9c0.9-1.1,2.1-2,3.4-2.6c1.4-0.6,3-1,4.8-1c1.8,0,3.4,0.3,4.8,1
		c1.4,0.6,2.5,1.5,3.4,2.6c0.9,1.1,1.6,2.4,2,3.9c0.4,1.5,0.7,3.1,0.7,4.8S175,89.8,174.5,91.3z M193.1,75.5
		c-0.1,0.4-0.9,2.5-1.1,3.2c-0.1,0.3-0.3,0.4-0.6,0.4c0,0-0.9-0.2-1.7-0.2c-0.5,0-1.3,0.1-2,0.3s-1.3,0.6-1.9,1.1
		c-0.6,0.5-1,1.3-1.3,2.2s-0.5,2.4-0.5,4v11.2c0,0.3-0.2,0.5-0.5,0.5h-4c-0.3,0-0.5-0.2-0.5-0.5V75.2c0-0.3,0.2-0.5,0.4-0.5h3.9
		c0.3,0,0.4,0.2,0.4,0.5V77c0.6-0.8,1.6-1.5,2.5-1.9c0.9-0.4,2-0.7,3.9-0.6c1,0.1,2.3,0.3,2.5,0.4C193,75,193.2,75.1,193.1,75.5z
		 M212,97.4c-1.7,0.7-4,1.1-6.3,1.1c-3.9,0-6.8-1.1-8.8-3.3s-3-5.2-3-8.9c0-1.7,0.2-3.3,0.7-4.8s1.2-2.8,2.2-3.9
		c1-1.1,2.2-2,3.6-2.6c1.4-0.6,3.1-1,5-1c1.3,0,2.4,0.1,3.3,0.2c1,0.2,2.4,0.5,3,0.8c0.1,0,0.4,0.2,0.3,0.5c-0.4,1.2-0.7,2-1.1,3
		c-0.2,0.5-0.5,0.3-0.5,0.3c-1.5-0.5-2.9-0.7-4.7-0.7c-2.2,0-3.9,0.7-4.9,2.2c-1.1,1.4-1.7,3.3-1.7,5.9c0,2.8,0.7,4.8,1.9,6.1
		c1.2,1.3,2.9,1.9,5.1,1.9c0.9,0,1.7-0.1,2.4-0.2c0.7-0.1,1.4-0.3,2.1-0.6c-0.1,0.2,0.3,0.1,0.5,0.5l1.1,3
		C212.3,97.3,212,97.4,212,97.4z M234.2,87.3c0,0.4-0.4,0.4-0.4,0.4h-15.1c0.1,2.3,0.6,3.9,1.8,5c1.1,1.1,2.8,1.8,5.2,1.8
		c3.6,0,5.1-0.7,6.2-1.1c0,0,0.4-0.1,0.6,0.3l1,2.8c0.2,0.5,0,0.6-0.1,0.7c-0.9,0.5-3.2,1.5-7.6,1.5c-2.1,0-4-0.3-5.5-0.9
		c-1.5-0.6-2.8-1.4-3.8-2.5c-1-1.1-1.7-2.4-2.2-3.8c-0.5-1.5-0.7-3.1-0.7-4.8s0.2-3.3,0.7-4.8c0.4-1.5,1.1-2.8,2-3.9
		c0.9-1.1,2.1-2,3.5-2.6c1.4-0.7,3.1-1,5-1c1.6,0,3.1,0.3,4.3,0.9c0.9,0.4,1.9,1.1,2.9,2.2c0.5,0.4,1.4,1.9,1.8,3.3
		C234.8,84.2,234.3,87.1,234.2,87.3z"/>
	<path class="st0" d="M103.7,78.2c-2,0-3.4,0.8-4.3,2.2c-0.7,0.9-1,2.1-1.3,3.6h10.8c-0.1-1.4-0.4-2.6-1-3.6
		C107,79,105.7,78.2,103.7,78.2z"/>
</g>
</svg>
