<?xml version="1.0" encoding="utf-8"?>
<!-- Generator: Adobe Illustrator 25.0.0, SVG Export Plug-In . SVG Version: 6.00 Build 0)  -->
<svg version="1.1" xmlns="http://www.w3.org/2000/svg" xmlns:xlink="http://www.w3.org/1999/xlink" x="0px" y="0px"
	 viewBox="0 0 110.3 50.6" style="enable-background:new 0 0 110.3 50.6;" xml:space="preserve">
<style type="text/css">
	.st0{fill:#F6E0DE;}
	.st1{fill:#0E1E6B;}
	.st2{fill:#FEFEFE;}
	.st3{fill:#58475B;}
	.st4{fill:#6873A2;}
	.st5{fill:#8D94B8;}
	.st6{fill:#E1AE5F;}
	.st7{fill:#E5B665;}
	.st8{fill:#E3B462;}
	.st9{fill:#DCA95B;}
	.st10{fill:#E5B767;}
	.st11{fill:#E6B561;}
	.st12{fill:#E0AE5F;}
	.st13{fill:#E7B967;}
	.st14{fill:#DDA95B;}
	.st15{fill:#D69D52;}
	.st16{fill:#E2B060;}
	.st17{fill:#D8A257;}
	.st18{fill:#C28141;}
	.st19{fill:#E6BB6C;}
	.st20{fill:#E2B261;}
	.st21{fill:#DCA658;}
	.st22{fill:#E4B563;}
	.st23{fill:#E6B868;}
	.st24{fill:#D79F4E;}
	.st25{fill:#E1B160;}
	.st26{fill:#E4B264;}
	.st27{fill:#E2B262;}
	.st28{fill:#DFAD5F;}
	.st29{fill:#D9A65A;}
	.st30{fill:#E3B56B;}
	.st31{fill:#E5B663;}
	.st32{fill:#D8B987;}
	.st33{fill:#E2B365;}
	.st34{fill:#732D0B;}
	.st35{fill:#CC8440;}
	.st36{fill:#E5B667;}
	.st37{fill:#CC8E49;}
	.st38{fill:#E4B462;}
	.st39{fill:#D2B674;}
	.st40{fill:#7B3614;}
	.st41{fill:#C1AC85;}
	.st42{fill:#E1B76C;}
	.st43{fill:#D39B53;}
	.st44{fill:#C7A16A;}
	.st45{fill:#D4B588;}
	.st46{fill:#ECBB63;}
	.st47{fill:#2C336C;}
	.st48{fill:#E8B767;}
	.st49{fill:#924E22;}
	.st50{fill:#D8B273;}
	.st51{fill:#AFA2A0;}
	.st52{fill:#E3B361;}
	.st53{fill:#D6B88A;}
	.st54{fill:#C9A36C;}
	.st55{fill:#D5B886;}
	.st56{fill:#D5B98A;}
	.st57{fill:#D8A263;}
	.st58{fill:#D1B785;}
	.st59{fill:#C5A66C;}
	.st60{fill:#E2C3B9;}
	.st61{fill:#D8A05A;}
	.st62{fill:#C7A583;}
	.st63{fill:#B8B2A2;}
	.st64{fill:#DCA856;}
	.st65{fill:#E6B665;}
	.st66{fill:#AA785D;}
	.st67{fill:#D79B4D;}
	.st68{fill:#D5AD6E;}
	.st69{fill:#B09E7D;}
	.st70{fill:#DFAB5E;}
	.st71{fill:#D2B585;}
	.st72{fill:#A25D24;}
	.st73{fill:#A58E86;}
	.st74{fill:#B7A694;}
	.st75{fill:#925023;}
	.st76{fill:#BF8040;}
	.st77{fill:#3F4372;}
	.st78{fill:#222D6E;}
	.st79{fill:#232D6E;}
	.st80{fill:#272F6D;}
	.st81{fill:#2F346B;}
	.st82{fill:#15256F;}
	.st83{fill:#262F6D;}
	.st84{fill:#29306C;}
	.st85{fill:#4F425D;}
	.st86{fill:#12216D;}
	.st87{fill:#B5A69D;}
	.st88{fill:#1A2A72;}
	.st89{fill:#1D2C73;}
	.st90{fill:#0F1F6C;}
	.st91{fill:#B69982;}
	.st92{fill:#16256F;}
	.st93{fill:#162670;}
	.st94{fill:#172770;}
	.st95{fill:#182871;}
	.st96{fill:#D0924A;}
	.st97{fill:#CB8B46;}
	.st98{fill:#CF914A;}
	.st99{fill:#C38343;}
	.st100{fill:#AEA697;}
	.st101{fill:#AFA294;}
	.st102{fill:#C6B5A0;}
	.st103{fill:#1B2A71;}
	.st104{fill:#BBA076;}
	.st105{fill:#C8B999;}
	.st106{fill:#CEB99B;}
	.st107{fill:#E4B463;}
	.st108{fill:#DFAD5B;}
	.st109{fill:#DFAA5A;}
	.st110{fill:#DFAC5D;}
	.st111{fill:#E0AF5D;}
	.st112{fill:#E2B162;}
	.st113{fill:#DEB05F;}
	.st114{fill:#E3B460;}
	.st115{fill:#E1B162;}
	.st116{fill:#E1B262;}
	.st117{fill:#DEB366;}
	.st118{fill:#E6B766;}
	.st119{fill:#E7BC6D;}
	.st120{fill:#DFAE5D;}
	.st121{fill:#E3B968;}
	.st122{fill:#E7B255;}
	.st123{fill:#DCA759;}
	.st124{fill:#DAA356;}
	.st125{fill:#E4B262;}
	.st126{fill:#E8C070;}
	.st127{fill:#E2AE5B;}
	.st128{fill:#E2AD58;}
	.st129{fill:#E6BC6D;}
	.st130{fill:#E9C171;}
	.st131{fill:#E5BD6F;}
	.st132{fill:#E9BF6F;}
	.st133{fill:#CCB999;}
	.st134{fill:#D69C51;}
	.st135{fill:#C07F3D;}
	.st136{fill:#C88946;}
	.st137{fill:#DB9D4C;}
	.st138{fill:#D09445;}
	.st139{fill:#E6B968;}
	.st140{fill:#E8BD6B;}
	.st141{fill:#E8BE6B;}
	.st142{fill:#E3B665;}
	.st143{fill:#E7BA65;}
	.st144{fill:#E7BA66;}
	.st145{fill:#E7B76B;}
	.st146{fill:#E1BB51;}
	.st147{fill:#CB8D3D;}
	.st148{fill:#E0AE5B;}
	.st149{fill:#E3B562;}
	.st150{fill:#E3B671;}
	.st151{fill:#E3B061;}
	.st152{fill:#E8B969;}
	.st153{fill:#E5B465;}
	.st154{fill:#E2AF62;}
	.st155{fill:#E2B565;}
	.st156{fill:#E0B063;}
	.st157{fill:#E6B65A;}
	.st158{fill:#E9C16B;}
	.st159{fill:#E1AF5C;}
	.st160{fill:#E9B963;}
	.st161{fill:#E9B866;}
	.st162{fill:#854114;}
	.st163{fill:#6E2A0D;}
	.st164{fill:#823D14;}
	.st165{fill:#8C410B;}
	.st166{fill:#D59C53;}
	.st167{fill:#D0964F;}
	.st168{fill:#E6BA69;}
	.st169{fill:#E8BB65;}
	.st170{fill:#E2AD59;}
	.st171{fill:#7C3A1B;}
	.st172{fill:#E1AC5C;}
	.st173{fill:#D9A657;}
	.st174{fill:#DDAC5D;}
	.st175{fill:#D9A75D;}
	.st176{fill:#D7A155;}
	.st177{fill:#CC9347;}
	.st178{fill:#D7A355;}
	.st179{fill:#D29C4F;}
	.st180{fill:#CF9649;}
	.st181{fill:#C78B41;}
	.st182{fill:#E8B253;}
	.st183{fill:#BB7A37;}
	.st184{fill:#B17031;}
	.st185{fill:#9B5825;}
	.st186{fill:#BD7C3A;}
	.st187{fill:#A05E28;}
	.st188{fill:#834325;}
	.st189{fill:#914E29;}
	.st190{fill:#E3AE59;}
	.st191{fill:#F5BD65;}
	.st192{fill:#D4A157;}
	.st193{fill:#C28241;}
	.st194{fill:#C08443;}
	.st195{fill:#CF9F64;}
	.st196{fill:#C07F46;}
	.st197{fill:#BC8138;}
	.st198{fill:#BE874E;}
	.st199{fill:#AD6F32;}
	.st200{fill:#D1A570;}
	.st201{fill:#C58648;}
	.st202{fill:#B16C2B;}
	.st203{fill:#AD703D;}
	.st204{fill:#7B3A12;}
	.st205{fill:#CB9B63;}
	.st206{fill:#A25E21;}
	.st207{fill:#6B4538;}
	.st208{fill:#B37042;}
	.st209{fill:#494161;}
	.st210{fill:#B97C3E;}
	.st211{fill:#B69E88;}
	.st212{fill:#B8773A;}
	.st213{fill:#BA7C3D;}
	.st214{fill:#AC682C;}
	.st215{fill:#AF6D31;}
	.st216{fill:#AF7034;}
	.st217{fill:#A56127;}
	.st218{fill:#9D5923;}
	.st219{fill:#9A5314;}
	.st220{fill:#B97736;}
	.st221{fill:#B17032;}
	.st222{fill:#D2994C;}
	.st223{fill:#C88842;}
	.st224{fill:#D9AD69;}
	.st225{fill:#DCAE58;}
	.st226{fill:#DBAA5D;}
	.st227{fill:#E2B05C;}
	.st228{fill:#E1B261;}
	.st229{fill:#E5B766;}
	.st230{fill:#DCA857;}
	.st231{fill:#DCA957;}
	.st232{fill:#D9A354;}
	.st233{fill:#E6BA6A;}
	.st234{fill:#E0A64C;}
	.st235{fill:#E3AB54;}
	.st236{fill:#DEAD5B;}
	.st237{fill:#DCA655;}
	.st238{fill:#DFAE59;}
	.st239{fill:#D3A85D;}
	.st240{fill:#CA9E4F;}
	.st241{fill:#D19F4B;}
	.st242{fill:#DEAB5C;}
	.st243{fill:#DDA858;}
	.st244{fill:#D7A052;}
	.st245{fill:#EDC87C;}
	.st246{fill:#EAC576;}
	.st247{fill:#E6BC6B;}
	.st248{fill:#DDA550;}
	.st249{fill:#EFCB7F;}
	.st250{fill:#EDC97B;}
	.st251{fill:#CD924A;}
	.st252{fill:#CC8B3C;}
	.st253{fill:#CA8D44;}
	.st254{fill:#8F4C1A;}
	.st255{fill:#97531F;}
	.st256{fill:#E9BF6D;}
	.st257{fill:#DFAF60;}
	.st258{fill:#E4B663;}
	.st259{fill:#E7BC6B;}
	.st260{fill:#E2B260;}
	.st261{fill:#EABD69;}
	.st262{fill:#E9BB66;}
	.st263{fill:#E5B35C;}
	.st264{fill:#DEAF5D;}
	.st265{fill:#DDA65A;}
	.st266{fill:#EBC574;}
	.st267{fill:#EABE66;}
	.st268{fill:#EAC471;}
	.st269{fill:#D2984E;}
	.st270{fill:#D69D51;}
	.st271{fill:#DEAE61;}
	.st272{fill:#D29A4B;}
	.st273{fill:#C48537;}
	.st274{fill:#D79F50;}
	.st275{fill:#DBA555;}
	.st276{fill:#BB7834;}
	.st277{fill:#975321;}
	.st278{fill:#E6B45A;}
	.st279{fill:#E1AD52;}
	.st280{fill:#D9A555;}
	.st281{fill:#C47F3C;}
	.st282{fill:#C08140;}
	.st283{fill:#BF7A3C;}
	.st284{fill:#BE7E40;}
	.st285{fill:#C48544;}
	.st286{fill:#CB8846;}
	.st287{fill:#CB8342;}
	.st288{fill:#B97338;}
	.st289{fill:#C38747;}
	.st290{fill:#D2A670;}
	.st291{fill:#D0A269;}
	.st292{fill:#CB934D;}
	.st293{fill:#CA985D;}
	.st294{fill:#D6AA6F;}
	.st295{fill:#CE9650;}
	.st296{fill:#A35D25;}
	.st297{fill:#A25E25;}
	.st298{fill:#AC682B;}
	.st299{fill:#C7945D;}
	.st300{fill:#BC844D;}
	.st301{fill:#C08C54;}
	.st302{fill:#642812;}
	.st303{fill:#DEBA81;}
	.st304{fill:#D6A96F;}
	.st305{fill:#B57438;}
	.st306{fill:#BB793D;}
	.st307{fill:#B47235;}
	.st308{fill:#BD7C39;}
	.st309{fill:#BF7E3C;}
	.st310{fill:#D59C4E;}
	.st311{fill:#CF9449;}
	.st312{fill:#D09449;}
	.st313{fill:#A9662A;}
	.st314{fill:#B1712D;}
	.st315{fill:#CC8D44;}
	.st316{fill:#CB8E46;}
	.st317{fill:#C3843D;}
	.st318{fill:#CC9048;}
	.st319{fill:#DFAE5B;}
	.st320{fill:#D59744;}
	.st321{fill:#D9A656;}
	.st322{fill:#DAA352;}
	.st323{fill:#E1B365;}
	.st324{fill:#DDA453;}
	.st325{fill:#DAA452;}
	.st326{fill:#DAA755;}
	.st327{fill:#D59C4C;}
	.st328{fill:#EDD190;}
	.st329{fill:#B87F38;}
	.st330{fill:#DAA353;}
	.st331{fill:#EBC677;}
	.st332{fill:#DA9E4C;}
	.st333{fill:#E1AA58;}
	.st334{fill:#D2994B;}
	.st335{fill:#D29748;}
	.st336{fill:#E6B460;}
	.st337{fill:#EAC886;}
	.st338{fill:#F0D594;}
	.st339{fill:#F1D18C;}
	.st340{fill:#D9A352;}
	.st341{fill:#B97237;}
	.st342{fill:#AA622E;}
	.st343{fill:#A25D28;}
	.st344{fill:#443122;}
	.st345{fill:#A37C53;}
	.st346{fill:#AE642D;}
	.st347{fill:#B6763E;}
	.st348{fill:#D8B073;}
	.st349{fill:#E2BF87;}
	.st350{fill:#D6AA73;}
	.st351{fill:#DFAB57;}
	.st352{fill:#DBA458;}
	.st353{fill:#B97B3F;}
	.st354{fill:#B47431;}
	.st355{fill:#DBBB85;}
	.st356{fill:#DFBA7F;}
	.st357{fill:#DAB276;}
	.st358{fill:#E1BC85;}
	.st359{fill:#DDB579;}
	.st360{fill:#DCB57C;}
	.st361{fill:#AD6A32;}
	.st362{fill:#B67239;}
	.st363{fill:#B77B37;}
	.st364{fill:#BF7B31;}
	.st365{fill:#C0823E;}
	.st366{fill:#CE9B58;}
	.st367{fill:#C18A42;}
	.st368{fill:#C18940;}
	.st369{fill:#E1AA5D;}
	.st370{fill:#D59D49;}
	.st371{fill:#EDD294;}
	.st372{fill:#EECC8A;}
	.st373{fill:#EACC87;}
	.st374{fill:#CFA360;}
	.st375{fill:#E9C076;}
	.st376{fill:#C8964F;}
	.st377{fill:#D7A04B;}
	.st378{fill:#CE8F41;}
	.st379{fill:#A76927;}
	.st380{fill:#C38032;}
	.st381{fill:#EFD8A0;}
	.st382{fill:#ECD39A;}
	.st383{fill:#EED59A;}
	.st384{fill:#EACB8D;}
	.st385{fill:#EBCB8B;}
	.st386{fill:#E4C580;}
	.st387{fill:#945C2A;}
	.st388{fill:#B87E3B;}
	.st389{fill:#F1DB9F;}
	.st390{fill:#EECA8D;}
	.st391{fill:#E1BF79;}
	.st392{fill:#EFD193;}
	.st393{fill:#E9C285;}
	.st394{fill:#E3C081;}
	.st395{fill:#ECC07F;}
	.st396{fill:#F3D79A;}
	.st397{fill:#E3BC75;}
	.st398{fill:#F0D89C;}
	.st399{fill:#EDD39B;}
	.st400{fill:#B26A33;}
	.st401{fill:#B86F39;}
	.st402{fill:#22150A;}
	.st403{fill:#C5B39C;}
	.st404{fill:#D19B4C;}
	.st405{fill:#D9A95F;}
	.st406{fill:#9F5826;}
	.st407{fill:#2D130A;}
	.st408{fill:#B07231;}
	.st409{fill:#C18349;}
	.st410{fill:#A9672F;}
	.st411{fill:#BB7C35;}
	.st412{fill:#EACC93;}
	.st413{fill:#E4C58E;}
	.st414{fill:#8A4618;}
	.st415{fill:#C49F6D;}
	.st416{fill:#9E591E;}
	.st417{fill:#A96529;}
	.st418{fill:#EBD09A;}
	.st419{fill:#E9CF96;}
	.st420{fill:#CFAE79;}
	.st421{fill:#E5C389;}
	.st422{fill:#985325;}
	.st423{fill:#AF6D35;}
	.st424{fill:#A5602C;}
	.st425{fill:#A45F29;}
	.st426{fill:#9A5223;}
	.st427{fill:#C18945;}
	.st428{fill:#CE9D56;}
	.st429{fill:#C6944B;}
	.st430{fill:#B87E3D;}
	.st431{fill:#BE8244;}
	.st432{fill:#DBB16E;}
	.st433{fill:#E8C880;}
	.st434{fill:#B77D3D;}
	.st435{fill:#D9A966;}
	.st436{fill:#DCBB7E;}
	.st437{fill:#E1C285;}
	.st438{fill:#EACE8E;}
	.st439{fill:#E7C98C;}
	.st440{fill:#D7AF6C;}
	.st441{fill:#D8B271;}
	.st442{fill:#D2A763;}
	.st443{fill:#9A5A20;}
	.st444{fill:#A26526;}
	.st445{fill:#925125;}
	.st446{fill:#F0DBA6;}
	.st447{fill:#ECD099;}
	.st448{fill:#EFD59E;}
	.st449{fill:#EBD094;}
	.st450{fill:#E8CB8B;}
	.st451{fill:#1F120A;}
	.st452{fill:#DDB063;}
	.st453{fill:#E4BC78;}
	.st454{fill:#2B1F17;}
	.st455{fill:#9C8A67;}
	.st456{fill:#AA9060;}
	.st457{fill:#382C21;}
	.st458{fill:#E9CB93;}
	.st459{fill:#EDC68B;}
	.st460{fill:#EDC187;}
	.st461{fill:#EECB94;}
	.st462{fill:#D09E51;}
	.st463{fill:#E2C588;}
	.st464{fill:#EAD099;}
	.st465{fill:#E5C68D;}
	.st466{fill:#8B5C31;}
	.st467{fill:#E2C282;}
	.st468{fill:#EAB97C;}
	.st469{fill:#ECBC83;}
	.st470{fill:#ECD39E;}
	.st471{fill:#A96230;}
	.st472{fill:#B9783C;}
	.st473{fill:#0A0505;}
	.st474{fill:#422713;}
	.st475{fill:#2F1508;}
	.st476{fill:#883D15;}
	.st477{fill:#92461B;}
	.st478{fill:#6C2610;}
	.st479{fill:#694A2D;}
	.st480{fill:#7A3112;}
	.st481{fill:#CB8656;}
	.st482{fill:#91653B;}
	.st483{fill:#CD8E5B;}
	.st484{fill:#CD9E6B;}
	.st485{fill:#BE8C5E;}
	.st486{fill:#A17F52;}
	.st487{fill:#AE8856;}
	.st488{fill:#EDD6A2;}
	.st489{fill:#E3C690;}
	.st490{fill:#EBCF95;}
	.st491{fill:#EBD39E;}
	.st492{fill:#715330;}
	.st493{fill:#D5B37E;}
	.st494{fill:#BA9562;}
	.st495{fill:#88411C;}
	.st496{fill:#803914;}
	.st497{fill:#8E471D;}
	.st498{fill:#A35C2D;}
	.st499{fill:#B7783B;}
	.st500{fill:#C38D4E;}
	.st501{fill:#C39054;}
	.st502{fill:#BD8845;}
	.st503{fill:#ECD191;}
	.st504{fill:#EACE90;}
	.st505{fill:#E8CB8E;}
	.st506{fill:#E0C082;}
	.st507{fill:#D7AF70;}
	.st508{fill:#DCB97A;}
	.st509{fill:#E5C88B;}
	.st510{fill:#CCA264;}
	.st511{fill:#C89B5E;}
	.st512{fill:#E6C582;}
	.st513{fill:#E1BF76;}
	.st514{fill:#391B09;}
	.st515{fill:#CD9949;}
	.st516{fill:#6F6255;}
	.st517{fill:#DEAA57;}
	.st518{fill:#5B4227;}
	.st519{fill:#251207;}
	.st520{fill:#442719;}
	.st521{fill:#DFB56B;}
	.st522{fill:#CFA456;}
	.st523{fill:#EAE1DA;}
	.st524{fill:#D9CFBA;}
	.st525{fill:#957D5D;}
	.st526{fill:#EFCF9A;}
	.st527{fill:#CB8B38;}
	.st528{fill:#C99246;}
	.st529{fill:#E6CD95;}
	.st530{fill:#E9CF9A;}
	.st531{fill:#C48C55;}
	.st532{fill:#C88650;}
	.st533{fill:#AE713B;}
	.st534{fill:#A8753F;}
	.st535{fill:#A56733;}
	.st536{fill:#934A22;}
	.st537{fill:#5C4227;}
	.st538{fill:#51341F;}
	.st539{fill:#735534;}
	.st540{fill:#64472A;}
	.st541{fill:#C6925D;}
	.st542{fill:#D4AB79;}
	.st543{fill:#D0A774;}
	.st544{fill:#D2AF78;}
	.st545{fill:#EED8A6;}
	.st546{fill:#B08F5D;}
	.st547{fill:#A36D30;}
	.st548{fill:#D6B06E;}
	.st549{fill:#5A4113;}
	.st550{fill:#BC814F;}
	.st551{fill:#CAA370;}
	.st552{fill:#DDBB85;}
	.st553{fill:#6C5234;}
	.st554{fill:#47311D;}
	.st555{fill:#765739;}
	.st556{fill:#593D23;}
	.st557{fill:#E1BE8A;}
	.st558{fill:#E1C08B;}
	.st559{fill:#5C1D0B;}
	.st560{fill:#69270F;}
	.st561{fill:#BE605A;}
	.st562{fill:#763012;}
	.st563{fill:#D06A65;}
	.st564{fill:#C79260;}
	.st565{fill:#C6945E;}
	.st566{fill:#D7B17A;}
	.st567{fill:#EBD39C;}
	.st568{fill:#E1C28C;}
	.st569{fill:#E5CA98;}
	.st570{fill:#0A0707;}
	.st571{fill:#2B160B;}
	.st572{fill:#391E10;}
	.st573{fill:#1C0B05;}
	.st574{fill:#C18233;}
	.st575{fill:#866D4A;}
	.st576{fill:#704622;}
	.st577{fill:#4B2710;}
	.st578{fill:#503B29;}
	.st579{fill:#E3DCD8;}
	.st580{fill:#4E2A12;}
	.st581{fill:#352515;}
	.st582{fill:#321B10;}
	.st583{fill:#C3BAA9;}
	.st584{fill:#978B6F;}
	.st585{fill:#C78C3E;}
	.st586{fill:#332315;}
	.st587{fill:#3D1715;}
	.st588{fill:#C6915C;}
	.st589{fill:#B35742;}
	.st590{fill:#391D0C;}
	.st591{fill:#F1DDAB;}
	.st592{fill:#2C1610;}
	.st593{fill:#4D1312;}
	.st594{fill:#AB6037;}
	.st595{fill:#641616;}
	.st596{fill:#E7C896;}
	.st597{fill:#E3C48F;}
	.st598{fill:#E5C392;}
	.st599{fill:#DA7D78;}
	.st600{fill:#E28C84;}
	.st601{fill:#D88175;}
	.st602{fill:#A76C49;}
	.st603{fill:#A35245;}
	.st604{fill:#C58A59;}
	.st605{fill:#ECD4A2;}
	.st606{fill:#856B64;}
	.st607{fill:#230408;}
	.st608{fill:#593936;}
	.st609{fill:#21060A;}
	.st610{fill:#AD4444;}
	.st611{fill:#952E25;}
	.st612{fill:#100809;}
	.st613{fill:#1A0909;}
	.st614{fill:#350B0F;}
	.st615{fill:#1C0809;}
	.st616{fill:#D77670;}
	.st617{fill:#6E2E26;}
	.st618{fill:#C45956;}
	.st619{fill:#9A423E;}
	.st620{fill:#C05957;}
	.st621{fill:#3A1F17;}
	.st622{fill:#A66C58;}
	.st623{fill:#84553F;}
	.st624{fill:#9C7E65;}
	.st625{fill:#692830;}
	.st626{fill:#C0988B;}
	.st627{fill:#553220;}
	.st628{fill:#3C1213;}
	.st629{fill:#320D13;}
	.st630{fill:#300F12;}
	.st631{fill:#2D0A0F;}
	.st632{fill:#BB514D;}
	.st633{fill:#7A3730;}
	.st634{fill:#A0675D;}
	.st635{fill:#592523;}
	.st636{fill:#9A6E62;}
	.st637{fill:#964F45;}
	.st638{fill:#DBC9B6;}
	.st639{fill:#CCB49F;}
	.st640{fill:#A68C76;}
	.st641{fill:#D0B19E;}
	.st642{fill:#341113;}
	.st643{fill:#3A0907;}
	.st644{fill:#EFE1CB;}
	.st645{fill:#956C64;}
	.st646{fill:#6B1C21;}
	.st647{fill:#9F353C;}
	.st648{fill:#BE937F;}
	.st649{fill:#A55E54;}
	.st650{fill:#D8BCA4;}
	.st651{fill:#C4AE9C;}
	.st652{fill:#C68641;}
	.st653{fill:#E3B060;}
	.st654{fill:#D9A556;}
	.st655{fill:#FFFFFF;}
	.st656{fill:#D0964A;}
	.st657{fill:#D1954D;}
	.st658{fill:#B8783A;}
	.st659{fill:#C18141;}
	.st660{fill:#AC692C;}
	.st661{fill:#B5A396;}
	.st662{fill:#AB672C;}
	.st663{fill:#EACF90;}
	.st664{fill:#E8C080;}
	.st665{fill:#C08038;}
	.st666{fill:#D2A868;}
	.st667{fill:#E5B96D;}
	.st668{fill:#D1954B;}
	.st669{fill:#EACD93;}
	.st670{fill:#E8BE6C;}
	.st671{fill:#AD6B2D;}
	.st672{fill:#AE6832;}
	.st673{fill:#EBD49E;}
	.st674{fill:#DDBC7F;}
	.st675{fill:#E1C18A;}
	.st676{fill:#220509;}
	.st677{fill:#B68153;}
	.st678{fill:#6D3B18;}
	.st679{fill:#8D675E;}
	.st680{fill:#583735;}
	.st681{fill:#C18A46;}
	.st682{fill:#C36A5E;}
	.st683{fill:#DBAC5F;}
	.st684{fill:#35271B;}
	.st685{fill:#A08555;}
	.st686{fill:#D6B37D;}
	.st687{fill:#E5C583;}
	.st688{fill:#D29543;}
	.st689{fill:#B99664;}
	.st690{fill:#A07B50;}
	.st691{fill:#D6B881;}
	.st692{fill:#C98754;}
	.st693{fill:#934C21;}
	.st694{fill:#CDA06D;}
	.st695{fill:#CD6661;}
	.st696{fill:#773112;}
	.st697{fill:#A55A30;}
	.st698{fill:#985021;}
	.st699{fill:#D7B681;}
	.st700{fill:#4B271C;}
	.st701{fill:#995A4F;}
	.st702{fill:#C2A48C;}
	.st703{fill:#C49155;}
	.st704{fill:#391012;}
	.st705{fill:#471011;}
	.st706{fill:#5B1B1D;}
	.st707{fill:#DC807A;}
	.st708{fill:#60200B;}
	.st709{fill:#732E27;}
	.st710{fill:#EFD9A7;}
	.st711{fill:#C3893E;}
	.st712{fill:#BC9C69;}
	.st713{fill:#3F2210;}
	.st714{fill:#070404;}
	.st715{fill:#E9E0CE;}
	.st716{fill:#BFB5AE;}
	.st717{fill:#E5C793;}
	.st718{fill:#BA9260;}
	.st719{fill:#BC7D34;}
	.st720{fill:#81613C;}
	.st721{fill:#91623B;}
	.st722{fill:#7A3414;}
	.st723{fill:#B94B4A;}
	.st724{fill:#281309;}
	.st725{fill:#E6DCC6;}
	.st726{fill:#D3B8A1;}
	.st727{fill:#E6D7C1;}
	.st728{fill:#412412;}
	.st729{stroke:#FFFFFF;stroke-width:15;stroke-miterlimit:10;}
	.st730{fill:none;}
	.st731{fill:#FEFDFD;}
	.st732{fill:none;stroke:#0E1E6B;stroke-width:2.3;stroke-miterlimit:10;}
	.st733{fill:#C7A46F;}
	.st734{fill:#CDAE7F;}
	.st735{fill:#C2A87A;}
	.st736{fill:#E4B565;}
	.st737{fill:#D9A75E;}
	.st738{fill:#E1B062;}
	.st739{fill:#E2B564;}
	.st740{fill:#E2BA74;}
	.st741{fill:#E7CA8C;}
	.st742{fill:#EDD7A4;}
	.st743{fill:#EFD09A;}
	.st744{fill:#EDD5A2;}
	.st745{fill:#903627;}
	.st746{fill:#460D0F;}
	.st747{fill:#0E1E6B;stroke:#FFFFFF;stroke-width:3;stroke-miterlimit:10;}
	.st748{stroke:#FFFFFF;stroke-width:10;stroke-miterlimit:10;}
	.st749{stroke:#FFFFFF;stroke-width:5;stroke-miterlimit:10;}
	.st750{fill:#E5B766;stroke:#000000;stroke-width:19;stroke-miterlimit:10;}
	.st751{fill:#F0DBA6;stroke:#000000;stroke-width:20;stroke-miterlimit:10;}
	.st752{fill:#21060A;stroke:#000000;stroke-width:20;stroke-miterlimit:10;}
</style>
<g id="Layer_1">
	<g>
		<path class="st730" d="M25.4,31.8L23.9,41l3-0.4l0.2-1.5l2.1-0.2l0.5,1.4l3-0.4l-2.8-8.5L25.4,31.8z M27.4,37.4l0.4-3.2l0.1,0
			l0.9,3.1L27.4,37.4z"/>
		<polygon class="st730" points="15.9,32.6 15,37.7 14.9,37.7 13.5,32.8 9,33.2 8.8,42.9 12.1,42.5 11.9,37.5 12.1,37.4 13.4,42.3 
			16.7,41.9 17.6,36.9 17.8,36.9 18.1,41.7 21.1,41.4 20.1,32.3 		"/>
		<polygon class="st730" points="9.3,8.2 9.1,8.2 7.8,16.8 10.8,16.8 		"/>
		<path class="st730" d="M66.6,28.3l-2.2,0.2l0.9,4.9c0,0.3,0,0.5,0,0.6c-0.1,0.1-0.2,0.2-0.5,0.2c-0.3,0-0.5,0-0.6-0.1
			c-0.1-0.1-0.2-0.3-0.3-0.5l-0.9-5l-2.3,0.2l0.9,5.2c0.2,0.9,0.5,1.5,1.1,1.8c0.6,0.3,1.4,0.4,2.4,0.3c1-0.1,1.7-0.4,2.1-0.9
			c0.4-0.5,0.6-1.1,0.4-2L66.6,28.3z"/>
		<path class="st730" d="M43.9,12.5c0.7,0,1.2-0.2,1.4-0.7c0.2-0.4,0.3-1.2,0.3-2.4c0-1.1-0.1-1.9-0.4-2.4s-0.8-0.7-1.6-0.7l-0.9,0
			l0,6.2L43.9,12.5z"/>
		<polygon class="st730" points="34.7,31 35.5,39.6 38.4,39.2 37.5,30.8 		"/>
		<polygon class="st730" points="69.1,28.1 70.5,35.3 72.7,35.1 71.2,27.9 		"/>
		<path class="st730" d="M58.1,32.7L58.1,32.7c0.6-0.5,0.8-1.1,0.7-1.7c-0.1-0.7-0.4-1.2-0.9-1.4c-0.5-0.3-1.2-0.4-2-0.3l-3.4,0.3
			l1.2,7.9l3.5-0.4c1.8-0.2,2.6-1.1,2.3-2.6C59.3,33.4,58.9,32.9,58.1,32.7z M55.2,31l0.5,0c0.2,0,0.4,0,0.5,0.1
			c0.1,0.1,0.2,0.3,0.2,0.6c0,0.3,0,0.5,0,0.6c-0.1,0.1-0.2,0.2-0.4,0.2l-0.5,0L55.2,31z M56.9,35.4c-0.1,0.1-0.3,0.2-0.5,0.2
			l-0.5,0.1l-0.3-1.9l0.5,0c0.3,0,0.5,0,0.6,0.2c0.1,0.1,0.2,0.4,0.3,0.7C57,35,57,35.2,56.9,35.4z"/>
		<polygon class="st730" points="63.1,7.8 62.8,7.8 61.5,16.5 64.5,16.5 		"/>
		<path class="st730" d="M98.5,18.2c0.4,0.8,1.2,1.2,2.3,1.2c1.2,0,1.9-0.4,2.2-1.1c0.3-0.8,0.5-2.3,0.5-4.7l0-1.2
			c0-2.4-0.2-4-0.6-4.9c-0.4-0.8-1.2-1.3-2.3-1.3c-1.2,0-1.9,0.4-2.2,1.3c-0.3,0.8-0.5,2.5-0.5,4.8l0,0.9
			C97.9,15.8,98.1,17.4,98.5,18.2z"/>
		<polygon class="st730" points="44.2,36.6 43.4,30.3 40.7,30.5 41.7,38.8 46.7,38.2 46.6,36.4 		"/>
		<path class="st730" d="M83.5,27.7C83,27.2,82.2,27,81.2,27l-2.3,0.2l1.5,6.9l2.3-0.3c1.9-0.2,2.5-1.5,2-3.9
			C84.4,28.9,84,28.2,83.5,27.7z M83,31.7c0,0.3-0.3,0.5-0.7,0.5l-0.4,0l-0.8-3.6l0.3,0c0.4,0,0.7,0.1,0.9,0.3
			c0.2,0.3,0.3,0.7,0.5,1.3C83,31,83,31.5,83,31.7z"/>
		<polygon class="st730" points="88.7,31.6 88.4,30.5 89.9,30.3 89.5,28.9 88.1,29.1 87.8,28.1 89.5,27.9 89.2,26.4 85.6,26.7 
			87.3,33.3 90.7,32.9 90.5,31.4 		"/>
		<path class="st730" d="M95.5,28.8c0-0.3,0-0.6-0.1-1c-0.2-0.7-0.5-1.2-0.8-1.5C94.2,26.1,93.7,26,93,26l-2.3,0.2l1.7,6.4l1.7-0.2
			l-0.6-2.3l0.2,0l1.2,2.2l1.8-0.2l-1.5-2.6C95.3,29.3,95.4,29.1,95.5,28.8z M93.8,28.8c0,0.1-0.2,0.2-0.3,0.2l-0.3,0l-0.4-1.4
			l0.3,0c0.2,0,0.3,0,0.4,0.1c0.1,0.1,0.2,0.3,0.3,0.5C93.8,28.5,93.8,28.7,93.8,28.8z"/>
		<polygon class="st730" points="76.7,32.9 75.6,27.5 73.6,27.7 75,34.8 78.8,34.3 78.5,32.7 		"/>
		<path class="st41" d="M110.3,25.5C110.3,25.5,110.3,25.6,110.3,25.5C110.3,25.5,110.3,25.5,110.3,25.5
			C110.3,25.5,110.3,25.5,110.3,25.5z"/>
		<path class="st1" d="M6.3,24.6l0.6-3.2l4.6,0l0.6,2.9l6.5-0.3L14.2,1L4.3,1L0,25.3l0.2,0c0.7-0.3,1.5-0.4,2.3-0.5L6.3,24.6z
			 M9.1,8.2l0.3,0l1.4,8.6l-3,0L9.1,8.2z"/>
		<polygon class="st1" points="34,23.3 34.2,19.6 28.2,19.7 28.1,0.9 21.4,0.9 21.5,23.9 		"/>
		<path class="st1" d="M42.9,22.8l0-5.7l1.8,0c2.7,0,4.6-0.7,5.9-1.9c1.3-1.3,1.9-3.3,1.9-6.3c0-2.9-0.7-5-2.1-6.3
			c-1.4-1.3-3.4-1.9-6.2-1.9l-7.9,0l0.1,22.3L42.9,22.8z M43.7,6.3c0.8,0,1.3,0.2,1.6,0.7s0.4,1.3,0.4,2.4c0,1.1-0.1,1.9-0.3,2.4
			c-0.2,0.4-0.7,0.7-1.4,0.7l-1.1,0l0-6.2L43.7,6.3z"/>
		<path class="st1" d="M60.7,21.1l4.6,0l0.1,0.7l6.5-0.3L67.9,0.6L58,0.7l-3.8,21.6l6.3-0.3L60.7,21.1z M62.8,7.8l0.3,0l1.4,8.6
			l-3,0L62.8,7.8z"/>
		<path class="st1" d="M89,20.6l-0.4-2.1c-1.9,0.5-3.4,0.8-4.4,0.8c-1,0-1.8-0.5-2.3-1.4s-0.7-2.6-0.7-4.9c0-2.3,0.2-4,0.6-5
			c0.4-1,1.2-1.5,2.4-1.5c0.8,0,2.2,0.3,4.3,1l1-6.1c-1.8-0.8-3.7-1.2-5.7-1.2c-3.4,0-5.8,1.1-7.2,3.3c-1.5,2.2-2.2,5.3-2.2,9.4
			c0,3.6,0.6,6.3,1.6,8.4L89,20.6z"/>
		<path class="st1" d="M96.9,20.2c1.2-0.1,2.5,0.9,2.9,2.2l0.7,2.6c0.1,0,0.2,0,0.2,0c3.4,0,5.8-1.1,7.3-3.2
			c1.5-2.1,2.2-5.3,2.2-9.6c0-4.3-0.8-7.5-2.3-9.4C106.5,1,104,0,100.6,0.1c-3.4,0-5.9,1-7.3,3c-1.5,2-2.2,5.1-2.2,9.4
			c0,3.3,0.5,6,1.4,8L96.9,20.2z M98.4,7.5c0.3-0.8,1.1-1.3,2.2-1.3c1.2,0,1.9,0.4,2.3,1.3c0.4,0.8,0.6,2.5,0.6,4.9l0,1.2
			c0,2.4-0.1,3.9-0.5,4.7c-0.3,0.8-1.1,1.1-2.2,1.1c-1.2,0-1.9-0.4-2.3-1.2c-0.4-0.8-0.6-2.4-0.6-5l0-0.9C97.9,10,98,8.3,98.4,7.5z"
			/>
		<path class="st1" d="M56.7,33.9c-0.1-0.1-0.3-0.2-0.6-0.2l-0.5,0l0.3,1.9l0.5-0.1c0.3,0,0.5-0.1,0.5-0.2c0.1-0.1,0.1-0.4,0-0.7
			C56.9,34.3,56.8,34.1,56.7,33.9z"/>
		<polygon class="st1" points="27.8,34.2 27.4,37.4 28.8,37.3 27.9,34.2 		"/>
		<path class="st1" d="M56.3,32.3c0.1-0.1,0.1-0.3,0-0.6c0-0.3-0.1-0.5-0.2-0.6C56,31,55.9,30.9,55.6,31l-0.5,0l0.3,1.6l0.5,0
			C56.1,32.5,56.3,32.4,56.3,32.3z"/>
		<path class="st1" d="M82.3,29c-0.2-0.3-0.5-0.4-0.9-0.3l-0.3,0l0.8,3.6l0.4,0c0.4,0,0.6-0.2,0.7-0.5c0-0.3,0-0.8-0.2-1.4
			C82.7,29.7,82.5,29.3,82.3,29z"/>
		<path class="st1" d="M93.5,27.7c-0.1-0.1-0.2-0.1-0.4-0.1l-0.3,0l0.4,1.4l0.3,0c0.2,0,0.3-0.1,0.3-0.2c0-0.1,0-0.3,0-0.6
			C93.6,28,93.6,27.8,93.5,27.7z"/>
		<path class="st1" d="M99.1,25l-0.7-2.4c-0.2-0.6-0.7-1-1.2-1l-4,0.2l-4,0.2l-12.2,0.7L72.2,23l-6.5,0.4l-5.5,0.3L53.9,24l-11,0.6
			L36.3,25L2.5,26.9c-1.3,0.1-2.3,0.8-2.3,1.7l0,20.6c0,1,1.1,1.6,2.4,1.5l98.7-14.2c0.5-0.1,0.8-0.6,0.7-1.2L99.1,25z M18.1,41.7
			l-0.3-4.9l-0.2,0l-0.9,5l-3.3,0.4l-1.4-4.8l-0.2,0l0.2,5l-3.3,0.4L9,33.2l4.6-0.4l1.4,4.9l0.2,0l0.8-5.1l4.3-0.4l1,9.1L18.1,41.7z
			 M29.7,40.3l-0.5-1.4l-2.1,0.2l-0.2,1.5l-3,0.4l1.5-9.2l4.5-0.4l2.8,8.5L29.7,40.3z M35.5,39.6L34.7,31l2.8-0.2l0.9,8.5L35.5,39.6
			z M41.7,38.8l-1-8.3l2.7-0.2l0.8,6.4l2.4-0.3l0.1,1.9L41.7,38.8z M57.2,37l-3.5,0.4l-1.2-7.9l3.4-0.3c0.9-0.1,1.6,0,2,0.3
			c0.5,0.3,0.8,0.8,0.9,1.4c0.1,0.7-0.1,1.2-0.7,1.7l0,0.1c0.8,0.2,1.2,0.7,1.4,1.7C59.7,35.9,59,36.7,57.2,37z M67.2,35.3
			c-0.4,0.5-1.1,0.7-2.1,0.9c-1,0.1-1.8,0-2.4-0.3c-0.6-0.3-0.9-0.9-1.1-1.8l-0.9-5.2l2.3-0.2l0.9,5c0,0.3,0.1,0.4,0.3,0.5
			c0.1,0.1,0.3,0.1,0.6,0.1c0.3,0,0.4-0.1,0.5-0.2c0.1-0.1,0.1-0.3,0-0.6l-0.9-4.9l2.2-0.2l1,5C67.8,34.1,67.6,34.8,67.2,35.3z
			 M70.5,35.3l-1.4-7.2l2.1-0.2l1.5,7.2L70.5,35.3z M75,34.8l-1.5-7.1l2-0.2l1.2,5.4l1.8-0.2l0.2,1.6L75,34.8z M82.7,33.8l-2.3,0.3
			l-1.5-6.9l2.3-0.2c1-0.1,1.8,0.1,2.3,0.6c0.5,0.5,0.9,1.3,1.2,2.3C85.2,32.3,84.6,33.6,82.7,33.8z M87.3,33.3l-1.6-6.6l3.5-0.3
			l0.3,1.6l-1.7,0.2l0.2,1l1.5-0.1l0.3,1.4l-1.5,0.2l0.3,1.1l1.8-0.2l0.3,1.5L87.3,33.3z M94.9,32.4l-1.2-2.2l-0.2,0l0.6,2.3
			l-1.7,0.2l-1.7-6.4L93,26c0.6-0.1,1.1,0.1,1.5,0.3c0.4,0.3,0.7,0.8,0.8,1.5c0.1,0.4,0.1,0.7,0.1,1c0,0.3-0.1,0.5-0.3,0.7l1.5,2.6
			L94.9,32.4z"/>
	</g>
</g>
<g id="Layer_2">
</g>
<g id="Layer_3">
</g>
<g id="Layer_4">
</g>
</svg>
