<svg enable-background="new 0 0 462.3 462.3" viewBox="0 0 462.3 462.3" xmlns="http://www.w3.org/2000/svg"><g fill="#010002"><g opacity=".2"><path d="m240.6 89.8c38 0 68.8 30.9 68.8 68.8 0 4.5 3.6 8.1 8.1 8.1s8.1-3.6 8.1-8.1c0-46.9-38.2-85.1-85.1-85.1-4.5 0-8.1 3.6-8.1 8.1.1 4.6 3.7 8.2 8.2 8.2z"/><path d="m108.3 158.7c0 27.9 9 54.3 26.1 76.3l.3.3c35.6 49.4 26.7 72.9 26.7 72.9-1.9 4.1-.1 8.9 3.9 10.8 1.1.5 2.3.8 3.4.8 3.1 0 6-1.7 7.4-4.7 1.5-3.1 13.1-32.2-28.7-89.9-.2-.3-.4-.5-.6-.7-14.6-19-22.2-41.7-22.2-65.8 0-59.7 48.6-108.3 108.3-108.3s108.3 48.6 108.3 108.3c0 24.1-7.7 46.9-22.5 66.1-41.8 57.7-29.7 87.2-28.2 90.3 1.9 4 6.6 5.6 10.6 3.8s5.8-6.6 4.1-10.6c-.1-.2-9.4-24.2 26.5-73.8 16.8-21.9 25.8-48.1 25.8-75.9 0-68.7-55.9-124.6-124.6-124.6s-124.6 56-124.6 124.7z"/><path d="m305.4 351.1v-6.9c0-11-9-20-20-20h-109.5c-11 0-20 9-20 20v6.9c0 11 9 20 20 20h109.5c11.1 0 20-9 20-20zm-133.2 0v-6.9c0-2 1.7-3.7 3.7-3.7h109.5c2 0 3.7 1.7 3.7 3.7v6.9c0 2-1.7 3.7-3.7 3.7h-109.5c-2 0-3.7-1.7-3.7-3.7z"/><path d="m422.3 305.6c2.7-3.6 1.9-8.7-1.7-11.4l-55.1-40.7c-3.6-2.7-8.7-1.9-11.4 1.7s-1.9 8.7 1.7 11.4l55.1 40.7c1.5 1.1 3.1 1.6 4.8 1.6 2.5 0 5-1.2 6.6-3.3z"/><path d="m99.2 77.5c1.5 1.1 3.1 1.6 4.8 1.6 2.5 0 4.9-1.1 6.6-3.3 2.7-3.6 1.9-8.7-1.7-11.4l-56.5-41.6c-3.6-2.7-8.7-1.9-11.4 1.7s-1.9 8.7 1.7 11.4z"/><path d="m101.7 250.8-58.9 43.5c-3.6 2.7-4.4 7.8-1.7 11.4 1.6 2.2 4.1 3.3 6.6 3.3 1.7 0 3.4-.5 4.8-1.6l58.9-43.5c3.6-2.7 4.4-7.8 1.7-11.4s-7.8-4.4-11.4-1.7z"/><path d="m358.2 61.7c-3.6 2.7-4.4 7.8-1.7 11.4 1.6 2.2 4.1 3.3 6.6 3.3 1.7 0 3.4-.5 4.8-1.6l52.7-38.9c3.6-2.7 4.4-7.8 1.7-11.4s-7.7-4.4-11.4-1.7z"/><path d="m454.2 156.9h-62.2c-4.5 0-8.1 3.6-8.1 8.1s3.6 8.1 8.1 8.1h62.2c4.5 0 8.1-3.6 8.1-8.1s-3.6-8.1-8.1-8.1z"/><path d="m80.4 165.1c0-4.5-3.6-8.1-8.1-8.1h-64.2c-4.5 0-8.1 3.6-8.1 8.1s3.6 8.1 8.1 8.1h64.2c4.5 0 8.1-3.7 8.1-8.1z"/></g><path d="m280.2 395.4h-99c-5 0-9-4-9-9 0-5 4-9 9-9h99c5 0 9 4 9 9 0 4.9-4 9-9 9z" opacity=".2"/><path d="m280.2 419.7h-99c-5 0-9-4-9-9 0-5 4-9 9-9h99c5 0 9 4 9 9 0 5-4 9-9 9z" opacity=".2"/><path d="m252.1 444h-42.8c-5 0-9-4-9-9 0-5 4-9 9-9h42.8c5 0 9 4 9 9 0 5-4 9-9 9z" opacity=".2"/></g></svg>