<svg enable-background="new 0 0 35.033 35.033" height="35.033" viewBox="0 0 35.033 35.033" width="35.033" xmlns="http://www.w3.org/2000/svg"><path d="m11.811 10.535-6.983 6.984 6.983 6.981c.78.781.78 2.048 0 2.828-.392.392-.901.586-1.414.586s-1.022-.194-1.414-.586l-8.397-8.396c-.375-.374-.586-.883-.586-1.413 0-.529.211-1.039.586-1.414l8.397-8.398c.781-.78 2.047-.78 2.828 0 .78.781.78 2.045 0 2.828zm22.636 5.569-8.396-8.398c-.781-.78-2.047-.78-2.828 0-.781.781-.781 2.047 0 2.828l6.982 6.984-6.982 6.982c-.781.781-.781 2.048 0 2.828.392.392.902.586 1.414.586s1.023-.194 1.414-.586l8.396-8.396c.375-.375.586-.884.586-1.414 0-.528-.211-1.039-.586-1.414zm-13.435-12.273c-1.076-.277-2.161.373-2.435 1.441l-6 23.498c-.272 1.07.373 2.16 1.442 2.434.167.043.334.063.497.063.894 0 1.706-.603 1.937-1.505l6-23.498c.274-1.071-.372-2.16-1.441-2.433z"/></svg>