<svg enable-background="new 0 0 512 512" viewBox="0 0 512 512" xmlns="http://www.w3.org/2000/svg"><path d="m485.743 85.333h-459.486c-14.442 0-26.257 11.815-26.257 26.256v288.821c0 14.44 11.815 26.257 26.257 26.257h459.487c14.44 0 26.257-11.815 26.257-26.257v-288.821c-.001-14.441-11.816-26.256-26.258-26.256zm-9.853 19.691-204.786 153.602c-3.682 2.802-9.334 4.555-15.105 4.529-5.77.026-11.421-1.727-15.104-4.529l-204.786-153.602zm-109.39 163.737 111.59 137.847c.112.138.249.243.368.368h-444.916c.118-.131.256-.23.368-.368l111.59-137.847c3.419-4.227 2.771-10.424-1.464-13.851-4.227-3.419-10.424-2.771-13.844 1.457l-110.5 136.501v-275.536l209.394 157.046c7.871 5.862 17.447 8.442 26.912 8.468 9.452-.02 19.036-2.6 26.912-8.468l209.394-157.046v275.534l-110.497-136.499c-3.42-4.227-9.623-4.877-13.844-1.457-4.234 3.419-4.884 9.624-1.463 13.851z"/></svg>