<svg fill="none" height="81" viewBox="0 0 372 81" width="372" xmlns="http://www.w3.org/2000/svg"><path d="m13 67h359v2h-359z" fill="#f60"/><path d="m138.985 7.58v21.42h14.94v-1.74h-12.9v-8.46h11.94v-1.74h-11.94v-7.74h12.75v-1.74zm17.423 5.94v15.48h1.89v-8.25c0-.82.14-1.57.42-2.25.28-.7.67-1.3 1.17-1.8.52-.5 1.13-.88 1.83-1.14.7-.28 1.48-.4 2.34-.36v-1.89c-1.4-.06-2.61.25-3.63.93-1 .68-1.74 1.65-2.22 2.91h-.06v-3.63zm15.433 1.59v-1.59h-3.06v-1.35c0-.42.01-.81.03-1.17s.09-.67.21-.93c.14-.28.35-.5.63-.66s.68-.24 1.2-.24c.22 0 .44.02.66.06.22.02.46.05.72.09v-1.62c-.3-.04-.57-.07-.81-.09s-.5-.03-.78-.03c-.76 0-1.39.11-1.89.33-.48.22-.86.53-1.14.93s-.47.88-.57 1.44-.15 1.17-.15 1.83v1.41h-2.64v1.59h2.64v13.89h1.89v-13.89zm1.614 3.15h1.89c.04-1.26.44-2.17 1.2-2.73.76-.58 1.74-.87 2.94-.87.56 0 1.08.05 1.56.15.5.08.93.24 1.29.48.38.24.67.57.87.99.22.4.33.92.33 1.56 0 .42-.06.76-.18 1.02-.1.26-.25.47-.45.63-.2.14-.45.24-.75.3s-.65.11-1.05.15c-1.02.12-2.03.25-3.03.39-.98.12-1.87.34-2.67.66-.78.32-1.41.79-1.89 1.41-.48.6-.72 1.44-.72 2.52 0 .78.13 1.46.39 2.04.28.56.65 1.03 1.11 1.41.48.36 1.03.62 1.65.78.64.18 1.32.27 2.04.27.76 0 1.41-.07 1.95-.21.56-.14 1.05-.34 1.47-.6.44-.26.83-.58 1.17-.96.36-.4.71-.85 1.05-1.35h.06c0 .4.02.77.06 1.11.06.32.17.6.33.84s.38.43.66.57c.3.12.69.18 1.17.18.26 0 .47-.01.63-.03.18-.02.38-.05.6-.09v-1.59c-.18.08-.38.12-.6.12-.74 0-1.11-.38-1.11-1.14v-8.22c0-1.04-.17-1.88-.51-2.52-.34-.66-.78-1.17-1.32-1.53s-1.15-.6-1.83-.72c-.68-.14-1.36-.21-2.04-.21-.9 0-1.72.1-2.46.3s-1.39.51-1.95.93c-.54.42-.97.96-1.29 1.62s-.51 1.44-.57 2.34zm10.08 2.28v2.46c0 .76-.15 1.44-.45 2.04-.28.6-.67 1.11-1.17 1.53-.48.42-1.05.74-1.71.96s-1.35.33-2.07.33c-.44 0-.87-.07-1.29-.21s-.79-.34-1.11-.6c-.32-.28-.58-.6-.78-.96-.18-.38-.27-.81-.27-1.29 0-.76.22-1.34.66-1.74.46-.42 1.04-.74 1.74-.96s1.47-.38 2.31-.48c.86-.12 1.69-.25 2.49-.39.26-.04.56-.11.9-.21s.57-.26.69-.48zm5.657-7.02v15.48h1.89v-8.25c0-.82.14-1.57.42-2.25.28-.7.67-1.3 1.17-1.8.52-.5 1.13-.88 1.83-1.14.7-.28 1.48-.4 2.34-.36v-1.89c-1.4-.06-2.61.25-3.63.93-1 .68-1.74 1.65-2.22 2.91h-.06v-3.63zm9.492-5.94v3.03h1.89v-3.03zm0 5.94v15.48h1.89v-15.48zm5.478 0v15.48h1.89v-9.03c.02-.76.14-1.46.36-2.1.24-.66.56-1.22.96-1.68.42-.48.92-.85 1.5-1.11.6-.28 1.28-.42 2.04-.42s1.39.12 1.89.36c.52.24.93.57 1.23.99s.51.92.63 1.5c.12.56.18 1.17.18 1.83v9.66h1.89v-9.96c0-.92-.09-1.75-.27-2.49s-.49-1.36-.93-1.86c-.44-.52-1.03-.92-1.77-1.2-.72-.28-1.62-.42-2.7-.42-1.1 0-2.11.29-3.03.87-.92.56-1.56 1.31-1.92 2.25h-.06v-2.67zm29.223 14.22v-14.22h-1.89v2.67h-.06c-.18-.42-.44-.82-.78-1.2-.32-.38-.69-.71-1.11-.99-.42-.3-.89-.53-1.41-.69-.5-.16-1.04-.24-1.62-.24-1.12 0-2.12.21-3 .63-.86.4-1.59.96-2.19 1.68-.58.7-1.03 1.53-1.35 2.49-.3.94-.45 1.94-.45 3 0 1.1.13 2.14.39 3.12.26.96.67 1.8 1.23 2.52.58.72 1.31 1.29 2.19 1.71.88.4 1.94.6 3.18.6 1.14 0 2.13-.29 2.97-.87.86-.58 1.51-1.35 1.95-2.31h.06v2.1c0 1.88-.39 3.32-1.17 4.32s-2.05 1.5-3.81 1.5c-.52 0-1.03-.06-1.53-.18-.5-.1-.96-.27-1.38-.51-.4-.24-.75-.56-1.05-.96-.28-.38-.47-.86-.57-1.44h-1.89c.06.82.28 1.52.66 2.1.4.6.89 1.09 1.47 1.47.6.38 1.27.66 2.01.84s1.5.27 2.28.27c1.26 0 2.32-.17 3.18-.51.88-.34 1.59-.83 2.13-1.47s.93-1.42 1.17-2.34c.26-.92.39-1.95.39-3.09zm-6.87-.51c-.88 0-1.64-.17-2.28-.51-.64-.36-1.17-.82-1.59-1.38-.42-.58-.73-1.24-.93-1.98s-.3-1.5-.3-2.28c0-.8.09-1.58.27-2.34.2-.78.51-1.47.93-2.07s.95-1.08 1.59-1.44c.64-.38 1.41-.57 2.31-.57s1.66.19 2.28.57c.64.38 1.16.88 1.56 1.5s.69 1.31.87 2.07.27 1.52.27 2.28c0 .78-.11 1.54-.33 2.28-.2.74-.51 1.4-.93 1.98-.42.56-.94 1.02-1.56 1.38-.62.34-1.34.51-2.16.51z" fill="#fff"/></svg>