<?xml version="1.0" encoding="utf-8"?>
<!-- Generator: Adobe Illustrator 22.0.1, SVG Export Plug-In . SVG Version: 6.00 Build 0)  -->
<svg version="1.1" id="Layer_1" xmlns="http://www.w3.org/2000/svg" xmlns:xlink="http://www.w3.org/1999/xlink" x="0px" y="0px"
	 width="233px" height="22px" viewBox="0 0 233 22" style="enable-background:new 0 0 233 22;" xml:space="preserve">
<style type="text/css">
	.st0{filter:url(#Adobe_OpacityMaskFilter);}
	.st1{fill:#FFFFFF;}
	.st2{mask:url(#mask-2_1_);fill:#FFFFFF;}
</style>
<title>Group 3</title>
<desc>Created with Sketch.</desc>
<g id="pres">
	<g id="Desktop-HD-Copy-351" transform="translate(-37.000000, -39.000000)">
		<g id="Group-3" transform="translate(37.000000, 39.000000)">
			<g id="Clip-2">
			</g>
			<defs>
				<filter id="Adobe_OpacityMaskFilter" filterUnits="userSpaceOnUse" x="0" y="0" width="232.9" height="21.9">
					<feColorMatrix  type="matrix" values="1 0 0 0 0  0 1 0 0 0  0 0 1 0 0  0 0 0 1 0"/>
				</filter>
			</defs>
			<mask maskUnits="userSpaceOnUse" x="0" y="0" width="232.9" height="21.9" id="mask-2_1_">
				<g class="st0">
					<polygon id="path-1_1_" class="st1" points="0,0 232.9,0 232.9,21.9 0,21.9 					"/>
				</g>
			</mask>
			<path id="Fill-1" class="st2" d="M232.9,0.6v20.6h-5.1L217.5,3.6h-0.2l0.1,17.6h-3.1V0.6h5.1l10.3,17.6h0.2l-0.1-17.6H232.9z
				 M209.4,18.4v2.9h-15.3V0.6h15.2v2.9h-12v5.8h10.9V12h-10.9v6.4H209.4z M170.8,15.5l3.2-1.2c0.6,2.7,2.3,4.7,6.7,4.7
				c3.8,0,5.6-1.4,5.6-3.2c0-5.6-14.7-0.8-14.7-9.6c0-3.7,3.5-6.2,8.5-6.2c5.6,0,8.5,2.9,9.1,6.3L186,7.5c-0.6-2.6-2.1-4.7-5.9-4.7
				c-3.5,0-5.2,1.4-5.2,3.2c0,5.6,14.7,0.8,14.7,9.7c0,3.7-3.5,6.2-8.9,6.2C174.3,21.9,171.4,18.9,170.8,15.5z M166.3,0.6v20.6h-5.1
				L151,3.6h-0.2l0.1,17.6h-3.1V0.6h5.1l10.3,17.6h0.2l-0.1-17.6H166.3z M137.1,11.7l-3.3-8.6l-3.3,8.6H137.1z M138.2,14.6h-8.7
				l-2.5,6.7h-3.3l8.1-20.6h4.3l8.1,20.6h-3.4L138.2,14.6z M120.2,0.6v20.6h-3.2v-9.1h-12v9.1h-3.2V0.6h3.2v8.5h12V0.6H120.2z
				 M85.6,18.3v2.9H69.3V19L81.1,3.6H69.5V0.6h15.8v2.2L73.5,18.3H85.6z M66.9,3.6h-7.7v17.7h-3.2V3.6h-7.6V0.6h18.5V3.6z
				 M41.9,21.2h3.2V0.6h-3.2V21.2z M29.1,10c2.8,0,4.2-1.1,4.2-3.3c0-2.2-1.4-3.3-4.2-3.3h-6.9V10H29.1z M36.9,21.2h-3.4l-0.7-4.6
				c-0.4-2.7-1.5-4-4-4h-6.6v8.6H19V0.6h10.3c4.8,0,7.4,2.2,7.4,5.8c0,2.6-1.4,4.3-3.6,5c1.6,0.6,2.6,2,2.9,4.4L36.9,21.2z M3.2,3.5
				v5.9h10.9v2.8H3.2v9H0V0.6h15.2v2.9H3.2z"/>
		</g>
	</g>
</g>
</svg>
