<svg fill="none" height="835" viewBox="0 0 1037 835" width="1037" xmlns="http://www.w3.org/2000/svg"><path d="m244.875 698.131v132.869h36.494v-69.647c0-13.535 2.227-23.216 6.682-29.041 4.454-5.997 11.65-8.995 21.588-8.995 8.738 0 14.82 2.741 18.247 8.224 3.426 5.311 5.14 13.45 5.14 24.415v75.044h36.494v-81.726c0-8.224-.771-15.677-2.313-22.359-1.371-6.853-3.855-12.593-7.453-17.219-3.598-4.797-8.567-8.481-14.906-11.051-6.168-2.741-14.135-4.112-23.901-4.112-7.71 0-15.249 1.799-22.616 5.397-7.368 3.427-13.364 8.995-17.99 16.705h-.771v-18.504zm189.864-20.56v-30.069h-36.494v30.069zm-36.494 20.56v132.869h36.494v-132.869zm155.694 46.774h35.723c-.514-8.567-2.57-15.934-6.168-22.102-3.598-6.339-8.309-11.565-14.135-15.677-5.654-4.283-12.164-7.453-19.532-9.509-7.196-2.056-14.734-3.084-22.616-3.084-10.794 0-20.388 1.799-28.784 5.397-8.395 3.598-15.505 8.652-21.331 15.163-5.825 6.339-10.28 13.964-13.364 22.873-2.912 8.738-4.369 18.247-4.369 28.527 0 9.937 1.628 19.104 4.883 27.499 3.256 8.224 7.796 15.334 13.621 21.331 5.826 5.997 12.85 10.708 21.074 14.135 8.396 3.255 17.562 4.883 27.499 4.883 17.648 0 32.125-4.626 43.433-13.878s18.162-22.702 20.56-40.349h-35.209c-1.199 8.224-4.197 14.82-8.995 19.789-4.626 4.797-11.308 7.196-20.046 7.196-5.654 0-10.451-1.285-14.392-3.855-3.94-2.57-7.11-5.825-9.509-9.766-2.227-4.112-3.855-8.652-4.883-13.621s-1.542-9.852-1.542-14.649c0-4.969.514-9.937 1.542-14.906 1.028-5.14 2.742-9.766 5.14-13.878 2.57-4.283 5.826-7.71 9.766-10.28 3.941-2.741 8.824-4.112 14.649-4.112 15.592 0 24.587 7.624 26.985 22.873zm60.451-97.403v183.498h36.494v-45.746l14.135-13.621 36.494 59.367h44.204l-55.769-84.039 50.115-48.83h-43.176l-46.003 47.802v-98.431zm181.756 30.069v-30.069h-36.494v30.069zm-36.494 20.56v132.869h36.494v-132.869z" fill="#fff"/><path d="m463.949 425.18h-145.53c.42-6.3 1.68-13.44 3.78-21.42 2.52-7.98 6.51-15.54 11.97-22.68 5.88-7.14 13.44-13.02 22.68-17.64 9.66-5.04 21.63-7.56 35.91-7.56 21.84 0 38.01 5.88 48.51 17.64 10.92 11.76 18.48 28.98 22.68 51.66zm-145.53 56.7h234.99c1.68-25.2-.42-49.35-6.3-72.45s-15.54-43.68-28.98-61.74c-13.02-18.06-29.82-32.34-50.4-42.84-20.58-10.92-44.73-16.38-72.45-16.38-24.78 0-47.46 4.41-68.04 13.23-20.16 8.82-37.59 21-52.29 36.54-14.7 15.12-26.04 33.18-34.02 54.18s-11.97 43.68-11.97 68.04c0 25.2 3.78 48.3 11.34 69.3 7.98 21 19.11 39.06 33.39 54.18s31.71 26.88 52.29 35.28c20.58 7.98 43.68 11.97 69.3 11.97 36.96 0 68.46-8.4 94.5-25.2s45.36-44.73 57.96-83.79h-78.75c-2.94 10.08-10.92 19.74-23.94 28.98-13.02 8.82-28.56 13.23-46.62 13.23-25.2 0-44.52-6.51-57.96-19.53s-20.79-34.02-22.05-63zm288.048-184.59v325.71h89.46v-146.79c0-14.7 1.47-28.35 4.41-40.95s7.77-23.52 14.49-32.76c7.14-9.66 16.38-17.22 27.72-22.68s25.2-8.19 41.58-8.19c5.46 0 11.13.42 17.01 1.26 5.88.42 10.92 1.05 15.12 1.89v-83.16c-7.14-2.1-13.65-3.15-19.53-3.15-11.34 0-22.26 1.68-32.76 5.04s-20.37 8.19-29.61 14.49c-9.24 5.88-17.43 13.23-24.57 22.05-7.14 8.4-12.81 17.64-17.01 27.72h-1.26v-60.48z" fill="#f60"/><path d="m230.139 103.35v160.65h35.325v-69.3h65.025v69.3h35.325v-160.65h-35.325v61.65h-65.025v-61.65zm227.747 160.65 39.375-116.325h-31.725l-24.525 79.425h-.45l-24.525-79.425h-33.525l39.825 116.325zm130.845-70.65h-51.975c.15-2.25.6-4.8 1.35-7.65.9-2.85 2.325-5.55 4.275-8.1 2.1-2.55 4.8-4.65 8.1-6.3 3.45-1.8 7.725-2.7 12.825-2.7 7.8 0 13.575 2.1 17.325 6.3 3.9 4.2 6.6 10.35 8.1 18.45zm-51.975 20.25h83.925c.6-9-.15-17.625-2.25-25.875s-5.55-15.6-10.35-22.05c-4.65-6.45-10.65-11.55-18-15.3-7.35-3.9-15.975-5.85-25.875-5.85-8.85 0-16.95 1.575-24.3 4.725-7.2 3.15-13.425 7.5-18.675 13.05-5.25 5.4-9.3 11.85-12.15 19.35s-4.275 15.6-4.275 24.3c0 9 1.35 17.25 4.05 24.75 2.85 7.5 6.825 13.95 11.925 19.35s11.325 9.6 18.675 12.6c7.35 2.85 15.6 4.275 24.75 4.275 13.2 0 24.45-3 33.75-9s16.2-15.975 20.7-29.925h-28.125c-1.05 3.6-3.9 7.05-8.55 10.35-4.65 3.15-10.2 4.725-16.65 4.725-9 0-15.9-2.325-20.7-6.975s-7.425-12.15-7.875-22.5zm103.774-65.925v116.325h31.95v-67.5c0-5.7.825-10.275 2.475-13.725 1.65-3.6 3.6-6.3 5.85-8.1 2.4-1.95 4.8-3.225 7.2-3.825 2.55-.75 4.575-1.125 6.075-1.125 5.1 0 8.925.9 11.475 2.7 2.7 1.65 4.575 3.9 5.625 6.75 1.2 2.85 1.875 6 2.025 9.45.15 3.3.225 6.675.225 10.125v65.25h31.95v-64.8c0-3.6.225-7.125.675-10.575.6-3.6 1.65-6.75 3.15-9.45 1.65-2.85 3.825-5.1 6.525-6.75 2.85-1.8 6.525-2.7 11.025-2.7s8.025.75 10.575 2.25c2.7 1.5 4.725 3.525 6.075 6.075s2.175 5.55 2.475 9 .45 7.125.45 11.025v65.925h31.95v-77.85c0-7.5-1.05-13.875-3.15-19.125-2.1-5.4-5.025-9.75-8.775-13.05s-8.25-5.7-13.5-7.2-10.95-2.25-17.1-2.25c-8.1 0-15.15 1.95-21.15 5.85-5.85 3.9-10.5 8.4-13.95 13.5-3.15-7.2-7.8-12.225-13.95-15.075-6-2.85-12.675-4.275-20.025-4.275-7.65 0-14.475 1.65-20.475 4.95-5.85 3.3-10.875 7.95-15.075 13.95h-.45v-15.75z" fill="#fff"/></svg>