<svg width="1383" height="181" viewBox="0 0 1383 181" fill="none" xmlns="http://www.w3.org/2000/svg">
<path d="M981.279 171.635C944.11 171.635 922.696 140.037 922.696 90.9429C922.696 37.235 945.155 9.20591 981.801 9.20591C1007.92 9.20591 1026.28 26.006 1035.25 53.2516H1049.09V15.1251C1028.26 4.58703 1005.13 -0.588931 981.801 0.0659968C927.745 0.0659968 882.655 30.8806 882.655 92.6838C882.655 139.254 913.121 180.775 980.234 180.775C1005.88 181.448 1031.19 174.87 1053.27 161.799V124.543H1037.6C1035.84 138.032 1029.07 150.366 1018.64 159.092C1008.2 167.818 994.866 172.296 981.279 171.635V171.635ZM1112.72 3.63492V53.2516H1125.34C1131.96 26.3541 1145.01 12.7748 1173.13 12.7748H1178.79V144.39C1178.79 163.975 1171.04 168.066 1152.15 168.066V177.293H1240.16V168.066C1219 168.066 1213.52 162.234 1213.52 144.39V12.8619H1219.18C1247.29 12.8619 1261.48 27.3117 1266.71 53.3387H1279.59V3.63492H1112.72ZM1326.42 3.63492V8.33545H1334.69V29.6619H1340.52V8.33545H1348.79V3.63492H1326.42V3.63492ZM0 12.7748C22.0228 12.7748 26.8975 18.8681 26.8975 35.6681V144.912C26.8975 163.453 20.9783 168.066 0 168.066V177.293H88.7878V168.066C65.8944 168.066 61.7162 161.451 61.7162 144.128V35.9293C61.7162 18.5199 66.5038 12.7748 88.7878 12.7748V3.63492H0V12.7748ZM372.996 139.515C372.996 139.515 358.285 32.1863 358.285 28.8785C358.285 17.6495 361.68 12.8619 380.395 12.8619V3.63492H324.946L278.55 127.328L232.241 3.63492H170.351V12.7748C186.367 12.7748 195.159 17.6495 195.159 30.1842C194.841 36.7726 194.173 43.3394 193.157 49.8568L182.798 139.08C180.187 161.538 170.873 168.066 154.856 168.066V177.293H217.617V168.066C197.248 168.066 192.199 161.538 192.199 150.657C192.199 145.608 192.983 136.381 194.027 126.458L203.603 36.2775H204.125L260.705 177.293H271.586L323.814 31.8381H325.555L338.96 136.294C339.776 141.598 340.27 146.947 340.44 152.311C340.44 161.973 338.264 168.502 318.417 168.502V177.293H398.849V168.066C379.524 168.066 375.868 161.19 372.735 139.602L372.996 139.515ZM571.637 3.63492H458.476V12.8619C479.541 12.8619 485.634 17.9106 485.634 36.5386V144.651C485.634 163.714 479.193 168.066 458.476 168.066V177.293H549.962V168.066C527.156 168.066 520.801 163.018 520.801 144.128V12.8619H545.784C573.377 12.8619 588.437 26.7894 588.437 56.3853C588.437 76.7542 577.817 91.204 550.484 91.204H535.512V98.9512C547.604 100.602 559.783 101.532 571.985 101.737C601.407 101.737 627.695 82.2382 627.695 54.035C627.695 29.9231 612.81 3.63492 571.637 3.63492V3.63492ZM821.548 151.179L761.921 3.63492H707.865V12.7748C711.833 12.316 715.853 12.7159 719.653 13.9475C723.453 15.179 726.943 17.2134 729.888 19.9127L686.364 133.074C676.789 157.273 673.917 167.892 652.068 167.892V177.293H714.742V168.066C697.332 168.066 685.059 165.107 696.462 136.294L705.166 111.834H769.929L782.29 142.475C789.167 160.493 786.816 168.589 764.881 168.589V177.293H844.79V168.066C831.907 167.544 826.684 164.236 821.287 150.657L821.548 151.179ZM709.693 100.344L736.329 29.836C737.2 31.4899 737.983 33.3179 738.766 35.32L766.012 100.344H709.693ZM1375.95 3.63492L1370.03 18.5199H1369.94L1363.94 3.63492H1356.8V29.6619H1362.2V12.7748H1362.28L1367.77 26.4412H1372.03L1377.52 12.6878H1377.6V29.6619H1383V3.63492H1375.95Z" fill="white"/>
</svg>
