<svg fill="none" height="359" viewBox="0 0 2255 359" width="2255" xmlns="http://www.w3.org/2000/svg"><path d="m.120003 8.27998v342.72002h75.359997v-110.4l43.2-43.68 103.2 154.08h94.56l-146.88-207.36 133.92-135.36002h-94.08l-133.92 142.08002v-142.08002zm406.885997 172.80002c0-15.04 1.6-29.6 4.8-43.68 3.52-14.08 8.96-26.56 16.32-37.44 7.36-11.2 16.96-20 28.8-26.4 11.84-6.72 26.24-10.08 43.2-10.08s31.36 3.36 43.2 10.08c11.84 6.4 21.44 15.2 28.8 26.4 7.36 10.88 12.64 23.36 15.84 37.44 3.52 14.08 5.28 28.64 5.28 43.68 0 14.4-1.76 28.48-5.28 42.24-3.2 13.44-8.48 25.6-15.84 36.48s-16.96 19.68-28.8 26.4c-11.84 6.4-26.24 9.6-43.2 9.6s-31.36-3.2-43.2-9.6c-11.84-6.72-21.44-15.52-28.8-26.4s-12.8-23.04-16.32-36.48c-3.2-13.76-4.8-27.84-4.8-42.24zm-75.36 0c0 24.96 3.84 48.32 11.52 70.08 7.68 21.44 18.72 40.16 33.12 56.16s32 28.64 52.8 37.92c21.12 8.96 44.8 13.44 71.04 13.44 26.56 0 50.24-4.48 71.04-13.44 20.8-9.28 38.4-21.92 52.8-37.92s25.44-34.72 33.12-56.16c7.68-21.76 11.52-45.12 11.52-70.08 0-25.6-3.84-49.28-11.52-71.04-7.68-22.08-18.72-41.28-33.12-57.6s-32-29.12-52.8-38.4c-20.8-9.28001-44.48-13.920003-71.04-13.920003-26.24 0-49.92 4.639993-71.04 13.920003-20.8 9.28-38.4 22.08-52.8 38.4s-25.44 35.52-33.12 57.6c-7.68 21.76-11.52 45.44-11.52 71.04zm388.474-172.80002v342.72002h70.56v-229.44h.96l142.56 229.44h75.36v-342.72002h-70.56v229.92002h-.96l-143.04-229.92002zm431.62 63.36002v279.36h75.36v-279.36h102.72v-63.36002h-280.8v63.36002zm259.94 146.88 44.64-125.76h.96l43.2 125.76zm7.2-210.24002-129.6 342.72002h75.84l26.88-76.32h128.16l25.92 76.32h78.24l-128.16-342.72002zm234.99 0v342.72002h75.36v-110.4l43.2-43.68 103.2 154.08h94.56l-146.88-207.36 133.92-135.36002h-94.08l-133.92 142.08002v-142.08002zm422.25 63.36002v279.36h75.36v-279.36h102.72v-63.36002h-280.8v63.36002z" fill="#2d3037"/></svg>