<svg enable-background="new 0 0 185 86.3" viewBox="0 0 185 86.3" xmlns="http://www.w3.org/2000/svg"><path d="m184.1 79.5c-.2-.4-.4-.9-.8-1.3-.3-.3-.4-.8-.3-1.2 0-.1 0-.1 0-.2.2-.9.3-1.8.4-2.5 0-.1 0-.3 0-.4 0-.7-.1-1.3-.6-2.1-.2-.4-.6-.8-1.1-1-.2-.1-.5-.2-.8-.3-.5-.1-.9-.5-1-1 0-.1-.1-.3-.1-.4-.1-.5-.3-.9-.6-1.5-.3-.5-.9-1.1-1.7-1.4-.1-.1-.3-.1-.4-.1-.5-.1-.9-.5-1-1-.8-3.9-1.9-7.5-3-10.4-.2-.5 0-1.1.4-1.4s1-.4 1.5-.2l.2.1c.6.2.9.4 1.7.4.3 0 .7-.1 1.1-.2.5-.2 1.2-.9 1.3-1.3.2-.5.3-.9.3-1.2 0-.6-.1-.8-.2-1v-.1c0-.1-.1-.2-.1-.3-.1-.4-.1-.8.2-1.2.2-.3.6-.5 1-.5s.8-.1 1.2-.2c.5-.2 1.3-.9 1.5-1.3.3-.6.3-1 .3-1.4s-.1-.7-.1-.8c0-.2-.1-.2-.1-.4-.9-2.4-2.4-4.2-4.1-5.5-1.3-1-2.6-1.7-3.9-2.2-.4-.2-.7-.5-.8-.9-.2-.7-.6-1.3-1.2-1.6-2.2-1.1-4.2-1.7-6-2-.5-.1-.9-.4-1.1-.9s-.1-1 .3-1.3c.2-.2.4-.4.5-.6.3-.6.3-1 .3-1.4 0-.2 0-.3 0-.5v-.2c0-.8-.1-1.5-.3-2.1-.1-.4 0-.9.3-1.2s.7-.5 1.2-.4c.9.2 1.8.2 2.6.2 1.5 0 2.6-.1 2.8-.2l.3-.1c.7-.2 1.2-.4 1.9-1 .5-.4.9-1.5.9-2 0 0 0 0 0-.1 0-.7-.2-1.1-.4-1.4-.1-.1-.1-.2-.2-.3v-.1c-.8-1.3-1.8-2.4-2.8-3.3-.5-.4-.6-1.2-.3-1.7.1-.1.1-.2.2-.3.2-.4.3-.8.3-1.2-.1-1.1-.3-1.3-.5-1.8-.2-.3-.3-.5-.4-.6l-.1-.1c-2.1-2.2-4.5-3.6-6.9-4.4-2-.7-4-1-5.8-1.1-.5 0-1-.4-1.2-.9-.1-.3-.2-.5-.3-.7-.6-.7-.8-.7-1.2-1-.5-.2-.6-.2-.9-.3-.2 0-.4-.1-.4-.1h-.1c-.2 0-.4 0-.6 0-1.2 0-2.4.2-3.5.5-.4.1-.9 0-1.2-.3s-.7-.4-.9-.5c-.1-.1-.3-.1-.6-.1-.8 0-1 .1-1.2.2h-.1c-2.5.7-4.3 2.1-5.5 3.4-.1.2-.3.3-.4.4-.3.3-.7.5-1.1.4-.4 0-.8-.1-1.1-.1h-.1c-2.2 0-4 .7-5.2 1.5-.8.5-1.4 1-1.7 1.3l-.1.1c-.2.1-.4.3-.6.6-.3.3-.6.9-.6 1.7 0 .4-.2.7-.5 1-1.6 1.3-2.7 2.7-3.4 3.9-1.1 2-1.4 3.7-1.4 4.6 0 .4-.2.8-.5 1.1s-.8.3-1.2.2c-1.7-.5-3.5-.8-5.3-.8-10 0-18.1 8.1-18.1 18.1 0 4.3 1.5 8.3 4.1 11.5.2.2.3.5.3.9v1.6c0 .4-.2.7-.4 1-.3.2-.6.4-1 .3-.3 0-.7-.1-1-.1-2.8 0-5.6 1.5-8 4.3-.1.1-.2.3-.3.4-.3.3-.7.5-1.1.5s-.8-.3-1-.7c-.6-1.1-1.4-2-2.2-2.6-2.1-1.6-4.3-1.9-6-2-.1 0-.1 0-.1 0-1.9 0-3.4.4-4.6 1.1-.4.2-.8.2-1.2 0-.3-.1-.6-.2-.9-.3-.7-.2-1.2-.2-1.5-.3h-.2c-1.1 0-2.3.4-3 1-.1.1-.3.2-.4.3-.5.4-1.3.4-1.7 0-.2-.2-.5-.4-.7-.5-.8-.5-1.8-.7-2.7-.7h-.2c-.2 0-.4 0-.8.1s-.9.2-1.5.5c-.4.2-.9.2-1.2-.1-1.1-.7-2.4-1.2-4-1.2-2.4 0-4.8 1.1-7 3.2-.4.4-.9.5-1.4.3s-.8-.7-.8-1.2v-7.9c0-1.2-.3-2.3-.8-3.1-.8-1.3-1.9-2-2.8-2.3s-1.4-.4-1.7-.4h-.1c-1.1 0-2.3.4-3 1-1.3 1-1.8 2.1-2 3.1-.3 1-.3 1.7-.3 2v.1 4.7c0 .4-.2.8-.5 1s-.7.3-1.1.2c-.5-.1-.9-.2-1.4-.2h-.2c-.2 0-.4 0-.8.1s-.9.2-1.5.5c-.4.2-.9.2-1.2-.1-1.1-.7-2.4-1.2-4-1.2-2.8 0-5.6 1.5-8 4.3-2.3 2.8-4 7.1-4 12.7v.1c0 .7 0 1.3.1 1.9.1.7-.4 1.3-1.1 1.4h-.2-2.5c-.3 0-.7-.1-.9-.4-.2-.2-.4-.6-.4-.9v-24.5s0-.1 0-.2c0-.7 0-1.7-.8-3.1-.4-.6-1-1.3-1.8-1.7s-1.8-.7-2.8-.7h-.8c-1.1 0-2.2.3-3 .8-1.3.8-1.9 2-2.2 2.9-.3 1-.3 1.7-.3 2.2v.2 31.5.1c0 .2 0 .5.1 1s.3 1.2.7 2 1 1.6 2 2.3c.9.6 2.2 1 3.5 1h.1c3.4 0 7.7-.1 8.7-.1h.1.3c.7 0 2-.1 3.2-1.2.2-.2.4-.4.6-.7s.6-.5.9-.5c.4 0 .7.1 1 .3 2.1 1.9 4.3 2.8 6.5 2.8h.1.5c.8 0 1.9-.1 3.3-.8l.6-.3c.4-.2.9-.3 1.3 0 .7.4 1.7.6 2.6.6h.1.5c.3-.1 1.2-.3 2.3-1.2.1-.1.1-.1.2-.2.5-.5 1.3-.5 1.8 0l.3.3c.8.6 2 1 3.1 1h.1c1 0 2-.3 2.8-.8.8-.6 1.3-1.3 1.7-1.9.2-.4.6-.7 1-.7.4-.1.9.1 1.2.4 2.3 2.4 4.9 3.6 7.3 3.7h.1.6c.8 0 1.9-.1 3.3-.7.2-.1.4-.2.6-.3.4-.2.9-.3 1.3 0 .7.4 1.6.6 2.6.6h.1.5c.3-.1 1.2-.3 2.3-1.2.1-.1.2-.1.2-.2.5-.5 1.3-.5 1.8 0 .2.1.3.3.5.4.8.6 2 1 3.1 1h.1c1 0 2-.3 2.8-.8 1.2-.8 1.7-1.9 2-2.8 0-.2.1-.3.1-.5.1-.6.7-1 1.2-1 .6 0 1.1.4 1.3 1 .2.9.6 1.7 1.2 2.4.9 1.1 2.3 1.7 3.7 1.7h.1c.5 0 1.2-.1 1.8-.3.9-.3 2-1.2 2.6-2.3 0-.1.1-.1.1-.2.2-.4.6-.7 1-.7h.2c.4 0 .7.2 1 .4 2.3 2.5 4.9 3.6 7.3 3.7h.1.6c.8 0 1.9-.1 3.3-.7.2-.1.4-.2.6-.3.4-.2.9-.3 1.3 0 .7.4 1.6.6 2.6.6h.1c.1 0 .3 0 .5-.1.3-.1 1.2-.3 2.3-1.2.1-.1.2-.2.3-.3.5-.5 1.3-.5 1.8 0l.3.3c.8.6 2 1 3.1 1h.1c1 0 2-.3 2.8-.8s1.3-1.2 1.6-1.9c.2-.4.6-.6 1-.7s.8.1 1.1.4c2.2 2.4 4.8 3.5 7.2 3.6h.1.6c.8 0 1.9-.1 3.3-.7l.6-.3c.4-.2.9-.3 1.3 0 .7.4 1.7.6 2.6.6.2 0 .3 0 .5-.1.3-.1 1.2-.3 2.3-1.2.1 0 .1-.1.2-.1.5-.5 1.3-.4 1.8.1.6.6 1.4 1 2.4 1.1h.1.1 7.6 9 12 2.5.9.1c1.8-.1 3.2-1.5 3.3-3.3 0-.1 0-.2 0-.3 0-.7 0-1.4-.4-2.4zm-42.6-26.2h-.2c-.2 0-.4 0-.8.1s-.9.2-1.5.5c-.4.2-.9.2-1.2-.1-1.1-.7-2.4-1.2-4-1.2-.2 0-.5 0-.7 0-.5.1-1.1-.2-1.3-.7s-.1-1.1.3-1.5c3.3-3.3 5.4-7.8 5.4-12.9 0-2.7-.6-5.2-1.6-7.5-.3-.6-.1-1.3.4-1.6.2-.2.4-.3.5-.4.4-.3.9-.4 1.3-.3.5.2.8.6.9 1.1v.3c.2 1.1 1.2 1.9 2.3 1.9h.2c.6-.1 1.1-.2 1.6-.4.7-.2 1.4.1 1.6.8s.4 1.1.4 1.1v.1c.2.4.5.9 1.1 1.3.3.2.7.4 1.1.5.5.1.9.5 1 1s-.1 1-.4 1.3c-.9.7-1.6 1.6-2 2.4-.8 1.5-.9 2.8-.9 3.5v.4c.1.7.2 1.1.6 1.9.2.3.6.7 1 .9.5.3.8.9.7 1.4-.3 1.2-.4 2.3-.4 3.2 0 1.4.2 2.3.3 2.6l.1.3c0 .2.1.4.3.6-.8.3-1.4.7-2 1.3-.2-.3-.4-.5-.5-.6-.2-.2-.5-.4-.8-.6-.8-.4-1.8-.7-2.8-.7zm14.2 12.3c-.1.5-.3 1.1-.4 1.5-.1.5-.5.8-1 .9-.3.1-.6.2-.9.3-.7.4-1.3 1.2-1.5 1.7s-.6.8-1.1.8c-.9.1-1.5.5-1.7.7 0 0-.1.1-.1.1-.2.2-.6.4-.9.4-.2 0-.3 0-.5-.1-.5-.2-.8-.7-.8-1.2v-8.5c.7.4 1.5.6 2.4.6 2.6 0 4.6-2 4.6-4.6 0-.7-.1-1.3-.4-1.8.2.2.4.4.7.6s.9.4 1.3.4h.2c.4 0 .8.1 1 .4.3.3.4.7.4 1.1-.3 2.4-.8 4.8-1.3 6.7z" fill="#fff"/><g fill="#0076bf"><path d="m75.9 55.6s3 .2 3 2.5c0 0 .3-3 5.4-3 2.5 0 7.2 1.3 7.2 7.9 0 5.8-.1 12.4-.1 16.1 0 3.5-1.5 4.2-2.9 4.2-1.5 0-2.8-1.2-2.9-3.7 0-4.2-.4-12.9-.4-13.5 0-3.3-.9-4.3-2.9-4.3-2.8 0-3.4 2.2-3.5 4.1 0 6-.1 13.8-.1 13.8s.3 3.6-2.8 3.6c-3 0-3.2-3.6-3.2-3.6v-20.4c.2 0 .1-3.7 3.2-3.7"/><path d="m44.9 43.6s3 .2 3 3.4l-.1 32.5s.3 3.6-2.8 3.6c-3 0-3.2-3.6-3.2-3.6v-32.2c.1 0 0-3.7 3.1-3.7"/><path d="m119.4 55.5s3 .2 3 3.4l-.1 20.7s.3 3.6-2.8 3.6c-3 0-3.2-3.6-3.2-3.6v-20.4s-.1-3.7 3.1-3.7"/><path d="m141.5 55.6c3.4 0 2.9 4.1 2.9 4.1v19.8c0 3.2-2.6 3.8-2.6 3.8-2.8 0-3-2.7-3-2.7-1.7 3.7-5.3 3.2-5.3 3.2-3.4 0-9.4-3.8-9.4-14.1s6.1-14.7 9.6-14.7c3.6 0 5 3.2 5 3.2.1-2.4 2.8-2.6 2.8-2.6m-11.3 13.7c0 5.2 2.6 6.9 4.2 6.9s4.1-.2 4.1-7-4.1-6.6-4.1-6.6c-1.8 0-4.2 1.4-4.2 6.7"/></g><path d="m119.2 21.8c-8.7 0-15.8 7.1-15.8 15.8 0 4.3 1.7 8.1 4.4 11 0-.7 0-1.2 0-1.2s-.1-3.7 2.9-3.7c3.1 0 2.9 3.1 2.9 3.1v5.6c1.7.7 3.6 1 5.6 1 8.7 0 15.8-7.1 15.8-15.8s-7-15.8-15.8-15.8" fill="#e52a11"/><path d="m110.8 43.7c-3 0-2.9 3.7-2.9 3.7s0 .5 0 1.2c-.1 2.4-.2 7.8-.2 8.9 0 0-1.2-2.3-4.8-2.3s-9.6 4.3-9.6 14.7c0 10.3 5.9 14.1 9.4 14.1 0 0 3.6.5 5.3-3.2 0 0 .3 2.7 3 2.7 0 0 2.6-.6 2.6-3.8v-32.9c.1 0 .3-3.1-2.8-3.1m-7.2 32.6c-1.6 0-4.2-1.7-4.2-6.9s2.4-6.7 4.2-6.7c0 0 4.1-.2 4.1 6.6 0 6.7-2.5 7-4.1 7" fill="#0076bf"/><path d="m67.2 55.5c3.4 0 2.9 4.1 2.9 4.1v19.8c0 3.3-2.6 3.8-2.6 3.8-2.8 0-3-2.7-3-2.7-1.7 3.7-5.3 3.2-5.3 3.2-3.4 0-9.4-3.7-9.4-14.1 0-10.3 6.1-14.7 9.6-14.7 3.6 0 5 3.2 5 3.2.1-2.4 2.8-2.6 2.8-2.6m-11.3 13.7c0 5.3 2.6 6.9 4.2 6.9s4.1-.2 4.1-7-4.1-6.6-4.1-6.6c-1.9 0-4.2 1.4-4.2 6.7" fill="#0076bf"/><path d="m29.3 62.5s4.1-.2 4.1 6.6-2.5 7-4.1 7-4.2-1.7-4.2-6.9c0-5.3 2.4-6.7 4.2-6.7m4.4-4.4s-1.5-3.2-5-3.2c-3.6 0-9.6 4.3-9.6 14.7 0 10.3 5.9 14.1 9.4 14.1 0 0 3.6.5 5.3-3.2 0 0 .3 2.7 3 2.7 0 0 2.6-.6 2.6-3.8v-19.8s.5-4.1-2.9-4.1c0 0-2.8.1-2.8 2.6" fill="#0076bf"/><path d="m2.9 47.3v31.6s.1 4 4 4c3.8 0 8.8-.1 8.8-.1s3 .5 3-3.9-3-3.6-3-3.6h-6.4v-28.5s.3-3.2-3.2-3.2c-3.4 0-3.2 3.7-3.2 3.7" fill="#0076bf"/><path d="m156.2 23.5c2.1 1.4 1.6-1.5 1.6-1.5 1.9 4 6.2 5.6 6.2 5.6 1.9.5 1.4-.9 1.4-.9.2-3.1-3.2-7.1-3.2-7.1 3.2.5 3.5-.8 3.5-.8.5-.9.9-.1.9-.1.5 1.5 1.1 1.3 1.1 1.3 2.2 1 6.3.4 6.3.4 1.6-.4.8-1.3.8-1.3-3.4-6.1-13.4-6.5-13.4-6.5 2.8-1.4 9.5-.7 9.5-.7 1.6-.1.5-1.4.5-1.4-7.5-7.8-19.1-3.7-19.1-3.7.7-1.1 4.3-3 4.3-3 1.3-.8-.4-.9-.4-.9-3.8-.2-7.8 2.3-7.8 2.3 0-.9 1.1-2.1 1.1-2.1.8-1-.8-.6-.8-.6-3.9 1-6.1 4.8-6.1 4.8-5.2-1.7-8.3 1.8-8.3 1.8-1.5 1 1.3 1.2 1.3 1.2-7.6 4.4-7 9.1-7 9.1 0 1.8 1.4.5 1.4.5 4.9-4.8 7.9-4.7 7.9-4.7.7-1.9 1.5-.6 1.5-.6.5 1 1.2.5 1.2.5-8.1 5.6-7 10.9-7 10.9.2 2.2 1.7.4 1.7.4 2.4-3.1 5-3.9 5-3.9 1.2-.5 1-1.1 1-1.1.3-1.3 1.1-.3 1.1-.3.4.5 1 .3 1 .3l2-.5c-5.1 4-4.2 7.8-4.2 7.8 2.2-.2 4.8-2.4 4.8-2.4-.2 1.9 1.3 5.4 1.3 5.4.6 1.2 1.6 0 1.6 0 2.2-2.2 3.6-7.9 3.6-7.9l3.6 9.7s.6 1.2 2.3.2c1.6-1 1.3-2 1.3-2z" fill="#009642"/><path d="m180.6 79.1s-1.6-.4-.7-1.2 1.1-2.5 1.2-3.8-.6-2-2.1-.7-1.2-.9-1.2-.9.4-3.7-1-4.2c-1.3-.5-2.2.8-2.2.8-2-12.3-7-22.1-7-22.1 2.4-.1 8.7 3.9 8.7 3.9 1.5.7 1-.6 1-.6-1.1-4.7-7.9-8.2-7.9-8.2 1.1-.6 2.6-.1 2.6-.1.9-2.3 1.1.7 1.1.7l7 2.5c1.7.4 1.2-1 1.2-1-2.8-7.6-13.6-7.9-13.6-7.9 1.6-.8 4.8-1 4.8-1-8-4-12.3-.2-12.3-.2s-.9.6-1.3.8c-1 .3-2.2.3-2.2.3-10.1.3-9.6 6.4-9.6 6.4.2 1.8 1.4.5 1.4.5 1.3-2.8 6.5-3.1 6.5-3.1-7.5 4.8-5.7 12.4-5.7 12.4.5 1.4 1.1.2 1.1.2 1.5-3.9 6-6.5 6-6.5-3.1 3.3-1.7 8-1.7 8 .4 1.4.9.3.9.3 1.1-3.1 3.6-4.9 3.6-4.9 2.2-1.8 3.5.8 3.5.8.9 1.3 1.6 1.5 1.6 1.5.8-1 .8-3.2.8-3.2 6.9 15.7 3.9 24.4 3.9 24.4-.8 1.7-1.7-.1-1.7-.1s-.5-1.4-1.8-1.2-1.8 1.8-1.8 1.8c-2 2-1.7-.4-1.7-.4 1.5-6.4 1.1-13.9.7-18.9 0 0-.3-1.2-1.5-1.7s-1.7.9-1.7.9c.6 8.4-3.1 17.6-3.1 17.6 0-.2-.7-.7-.7-.7-2.8-.9-1.3 3.5-1.3 3.5.7 2.3-2-.1-2-.1-1.1-1-1.7-.4-1.7-.4-1 2.6 1.3 5 1.3 5 .6 1.2-.5 1.3-.5 1.3-.7-.8-1.8-.5-1.8-.5-1.8.5-1.6 2.8-1.6 2.9 0 .6.5 1.1 1.1 1.1h16.7 2.4 13c.6 0 1.1-.5 1.1-1.1-.2-.1 0-2.4-1.8-2.9" fill="#009642"/><path d="m149.1 55.6c1.4 0 2.7 1 2.7 2.7s-1.3 2.7-2.7 2.7-2.7-1-2.7-2.7c-.1-1.7 1.3-2.7 2.7-2.7zm0 4.8c1 0 1.9-.8 1.9-2.1 0-1.2-.8-2.1-1.9-2.1s-1.9.8-1.9 2.1c0 1.2.8 2.1 1.9 2.1zm-1.1-3.2c0-.2.2-.3.3-.3h.9c.7 0 1.1.2 1.1.9 0 .5-.3.8-.7.8l.5.7c.1.1.1.2.1.2 0 .1-.1.2-.3.2s-.2-.1-.4-.2l-.7-.9h-.2v.8c0 .2-.1.3-.3.3s-.3-.1-.3-.3zm.6.8h.5c.2 0 .4 0 .4-.3s-.2-.3-.4-.3h-.5z" fill="#0076bf"/></svg>