<svg width="984" height="181" viewBox="0 0 984 181" fill="none" xmlns="http://www.w3.org/2000/svg">
<g clip-path="url(#clip0)">
<path d="M765.27 84.5586C765.27 114.869 739.11 138.959 708.81 138.959C684.9 138.959 669.09 122.209 669.09 99.0586C669.09 68.5686 695.09 45.0586 725.56 45.0586C749.27 45.0386 765.27 61.5986 765.27 84.5586ZM743.27 87.3886C743.27 74.5886 735.18 64.7986 722 64.7986C704.69 64.7986 690.95 79.2986 690.95 96.4186C690.95 109.219 699.04 119.199 712.4 119.199C729.7 119.169 743.25 104.519 743.25 87.3886H743.27Z" fill="white"/>
<path d="M983.32 84.5586C983.32 114.869 957.16 138.959 926.86 138.959C902.95 138.959 887.14 122.209 887.14 99.0586C887.14 68.5686 913.14 45.0586 943.61 45.0586C967.32 45.0386 983.32 61.5986 983.32 84.5586ZM961.32 87.3886C961.32 74.5886 953.22 64.7986 940.05 64.7986C922.73 64.7986 908.99 79.2986 908.99 96.4186C908.99 109.219 917.09 119.199 930.45 119.199C947.75 119.169 961.3 104.519 961.3 87.3886H961.32Z" fill="white"/>
<path d="M874.29 84.5612C874.29 71.1412 868.79 59.9412 859.51 52.9212V52.8212C859.04 52.4712 858.51 52.1612 858.06 51.8212C857.84 51.6712 857.62 51.5013 857.38 51.3613C856.38 50.7213 855.38 50.1212 854.38 49.5712C853.31 49.0212 852.19 48.5113 851.04 48.0513L850.33 47.7912C849.42 47.4512 848.49 47.1312 847.53 46.8412L846.53 46.5712C845.62 46.3312 844.69 46.1112 843.74 45.9212L842.74 45.7312C841.74 45.5512 840.68 45.4112 839.63 45.3112L838.8 45.2112C837.47 45.1012 836.13 45.0312 834.75 45.0312H834.66C804.17 45.0312 778.19 68.5613 778.19 99.0312C778.19 122.181 794 138.931 817.9 138.931H818.3C819.3 138.931 820.22 138.931 821.17 138.841L822.59 138.731C823.17 138.681 823.75 138.631 824.33 138.561C824.91 138.491 825.43 138.441 825.98 138.361L827.36 138.141C828.73 137.911 830.09 137.631 831.43 137.311L831.74 137.241C832.46 137.061 833.18 136.851 833.89 136.651L834.65 136.421C835.38 136.201 836.1 135.971 836.82 135.711L837.25 135.561C840.09 134.552 842.848 133.325 845.5 131.891L844.75 136.121C842.12 151.931 830.45 160.771 816.9 160.771C803.35 160.771 795.82 153.771 796.19 143.641H773.9C772.4 165.291 788.4 180.531 813.43 180.531C839.78 180.531 861.61 163.781 866.32 136.121C866.32 136.171 874.29 93.2712 874.29 84.5612ZM800 96.4212C800 79.3112 813.71 64.8312 831 64.8112C844.14 64.8112 852.22 74.6113 852.22 87.3913C852.22 104.501 838.69 119.171 821.39 119.191C808.11 119.171 800 109.171 800 96.4212Z" fill="white"/>
<path d="M545.73 85.0317C545.73 62.0317 529.73 45.5117 506.02 45.5117C475.53 45.5117 449.56 69.0417 449.56 99.5117C449.56 122.662 465.36 139.412 489.27 139.412C498.566 139.404 507.722 137.139 515.95 132.812L515.27 136.592H536.91C536.91 136.592 545.73 93.9417 545.73 85.0317ZM492.84 119.672C479.48 119.672 471.39 109.672 471.39 96.8917C471.39 79.7617 485.13 65.2717 502.44 65.2717C515.62 65.2717 523.71 75.0617 523.71 87.8617C523.71 104.982 510.16 119.672 492.84 119.672Z" fill="white"/>
<path d="M618.36 45.0398H618.27C617.13 45.0398 616 45.0398 614.88 45.1498H614.41C613.35 45.2198 612.3 45.3198 611.25 45.4498H611.03C604.08 46.3082 597.343 48.4118 591.14 51.6599L597.73 10.3398H576.09L563.44 86.1698C562.782 88.7205 562.324 91.3183 562.07 93.9398L561.81 95.4298L561.93 95.6398C561.86 96.7798 561.81 97.9398 561.81 99.1098C561.81 118.64 573.09 133.58 590.97 137.78L591.62 137.93C592.43 138.11 593.26 138.27 594.1 138.4C594.62 138.49 595.16 138.55 595.69 138.62C596.22 138.69 597.01 138.79 597.69 138.84C598.81 138.93 599.95 138.98 601.1 138.99H601.53H601.62C631.93 138.99 658.09 114.9 658.09 84.5898C658.08 61.5998 642.08 45.0398 618.36 45.0398ZM583.73 96.4198C583.739 94.5245 583.916 92.6338 584.26 90.7699L584.41 89.9398C585.481 84.7504 587.835 79.912 591.257 75.8663C594.679 71.8207 599.06 68.6968 604 66.7798L604.17 66.7198C604.9 66.4398 605.65 66.1998 606.41 65.9798L607 65.8198C607.67 65.6498 608.35 65.4898 609 65.3598C609.34 65.2898 609.68 65.2498 610 65.1898C610.59 65.0998 611.17 65.0098 611.76 64.9498C612.35 64.8898 613.23 64.8498 613.98 64.8398H614.67C627.82 64.8398 635.89 74.6298 635.89 87.4198C635.89 104.53 622.36 119.2 605.07 119.22C591.81 119.17 583.73 109.17 583.73 96.4198Z" fill="white"/>
<path d="M80.12 0C64.2759 3.08529e-06 48.7875 4.6977 35.6129 13.4992C22.4384 22.3007 12.1691 34.8108 6.10359 49.4479C0.0380254 64.085 -1.55153 80.1919 1.53587 95.7323C4.62326 111.273 12.249 125.549 23.449 136.756C34.6489 147.963 48.9203 155.597 64.4588 158.694C79.9972 161.792 96.1051 160.212 110.746 154.156C125.387 148.099 137.903 137.838 146.713 124.669C155.523 111.5 160.23 96.0141 160.24 80.17C160.24 58.9209 151.799 38.542 136.773 23.5166C121.748 8.49119 101.369 0.0499954 80.12 0.0499954" fill="#2D75F6"/>
<path d="M210.39 23.4682C202.95 16.0279 194.118 10.1259 184.397 6.09921C174.676 2.07252 164.257 0 153.735 0C143.213 0 132.794 2.07252 123.074 6.09921C113.353 10.1259 104.52 16.0279 97.0802 23.4682C65.8002 54.7582 66.2802 105.008 97.0802 136.768C125.39 165.958 153.71 180.768 153.71 180.768C153.71 180.768 182.04 166.258 210.39 136.768C241.05 104.868 241.67 54.7682 210.39 23.4682ZM153.71 118.818C145.647 118.814 137.767 116.42 131.065 111.938C124.363 107.455 119.141 101.086 116.058 93.6364C112.975 86.1863 112.171 77.9894 113.746 70.0821C115.321 62.1748 119.206 54.9122 124.908 49.2124C130.611 43.5126 137.876 39.6316 145.784 38.0601C153.692 36.4886 161.888 37.2972 169.337 40.3836C176.785 43.4699 183.152 48.6955 187.631 55.3997C192.11 62.1038 194.5 69.9855 194.5 78.0482C194.504 83.405 193.452 88.71 191.403 93.6595C189.354 98.609 186.349 103.106 182.561 106.893C178.772 110.68 174.274 113.682 169.323 115.729C164.372 117.775 159.067 118.825 153.71 118.818" fill="#00C876"/>
<path d="M394.91 45.0391C385.42 45.0391 375.19 47.4291 367.19 52.1291L367.78 49.8391H346L330.38 136.609H352L361.8 87.0191C364.07 75.4791 375.54 64.3691 394.94 65.2691C408.11 65.8791 415.94 72.5791 412.34 94.7191L404.89 136.769H426.72L435.19 87.6491C440.15 61.7691 424.18 45.3291 394.91 45.0391Z" fill="white"/>
</g>
<defs>
<clipPath id="clip0">
<rect width="983.32" height="180.77" fill="white"/>
</clipPath>
</defs>
</svg>
