<svg enable-background="new 0 0 390 220.1" viewBox="0 0 390 220.1" xmlns="http://www.w3.org/2000/svg"><path d="m2 1.5h198v217h-198z" fill="none" stroke="#abacaf" stroke-miterlimit="10" stroke-width="3"/><path d="m72.9 55 .4 16h.4c4.5-5.7 10-10.1 16.4-13.3s13.1-4.8 20-4.8c24.1 0 36.2 16.3 36.2 49v63.9h-20.9v-61.8c0-12.9-1.7-21.8-5-26.5-3.3-4.8-9.3-7.1-17.8-7.1-7.2 0-13.8 3.6-19.8 10.8s-8.9 15.5-8.9 25v59.6h-21.2v-110.8z" fill="#abacaf"/><g enable-background="new" fill="#757679"><path d="m246.2 36.2c6-.9 12.3-1.3 18.9-1.3 18.3 0 27.5 6.8 27.5 20.5 0 7.4-2.1 13-6.4 16.8s-10.5 5.7-18.8 5.7c-2.1 0-4.4-.1-6.9-.3v21h-14.4zm14.4 30.5c1.8.3 3.6.4 5.4.4 4.1 0 7.3-1 9.6-2.9s3.4-4.6 3.4-8c0-6.8-4.3-10.2-13-10.2-1.9 0-3.7.2-5.4.5z"/><path d="m318.2 52.9c7.2 0 12.3 1.4 15.4 4.1s4.6 7.2 4.6 13.4v16.1c0 4.1.4 8.1 1.3 12h-13.1c-.5-2.6-.7-4.7-.9-6.3h-.2c-1.5 2.2-3.6 3.9-6.2 5.2s-5.3 1.9-8.2 1.9c-4.3 0-7.7-1.2-10.3-3.6s-3.9-5.7-3.9-9.9c0-4.9 2.1-8.9 6.3-11.9s10.3-4.5 18.2-4.5h3.2v-.2c0-2.5-.5-4.3-1.5-5.2-1-1-2.8-1.5-5.3-1.5-5.8 0-11.4 1.3-16.8 3.9l-1.8-9.7c5.8-2.5 12.2-3.8 19.2-3.8zm-9 31.7c0 1.5.5 2.8 1.4 3.6.9.9 2.2 1.3 3.8 1.3 2.9 0 5.2-.9 7.1-2.7s2.8-4 2.8-6.8v-2.1h-3.2c-3.9 0-6.9.6-8.9 1.8-1.9 1.3-3 2.9-3 4.9z"/></g><g enable-background="new" fill="#757679"><path d="m245.8 119h13.8v25.2h.2c3.3-4.2 7.6-6.3 12.7-6.3 5.4 0 9.8 2 13 6s4.8 9.7 4.8 17.2c0 7.3-1.7 13-5 17.1s-7.6 6.1-12.8 6.1c-5.4 0-9.9-2.4-13.4-7.1h-.2l-.3 6.2h-12.7v-64.4zm31.3 42.1c0-4.2-.8-7.3-2.3-9.5-1.5-2.1-3.7-3.2-6.4-3.2-2.6 0-4.8 1.1-6.4 3.2-1.6 2.2-2.4 5.1-2.4 9v.9c0 3.9.8 6.9 2.4 9s3.7 3.2 6.4 3.2c2.6 0 4.7-1.1 6.3-3.3 1.6-2.1 2.4-5.2 2.4-9.3z"/><path d="m332.6 150.9c-4.9-2-9.7-3-14.4-3-2.6 0-4.5.3-5.5.9-1.1.6-1.6 1.5-1.6 2.7 0 1.1.5 2.1 1.4 2.7.9.7 2.6 1.2 5 1.5 6.7.9 11.5 2.5 14.4 4.9s4.3 5.7 4.3 10c0 4.2-1.6 7.6-4.9 10.1s-8 3.7-14.2 3.7c-7.3 0-13.9-1.4-19.8-4.3l2.6-10c4.9 2.8 10.3 4.2 16.1 4.2 4.4 0 6.5-1.3 6.5-4 0-1.1-.4-2-1.2-2.6s-2.6-1.1-5.2-1.5c-6.6-1-11.3-2.8-14.2-5.2s-4.3-5.7-4.3-9.8 1.6-7.3 4.9-9.7 8.2-3.6 14.6-3.6c6.2 0 12.3 1.1 18.1 3.2z"/><path d="m365.2 140.5h14.6v9.7h-14.6v16.1c0 3.1.4 5.2 1.1 6.2s2.1 1.5 4 1.5c2.5 0 5-.5 7.7-1.4l1.5 10c-4.1 1.1-8.3 1.7-12.6 1.7-5.5 0-9.5-1.2-12.1-3.7s-3.8-6.5-3.8-12v-18.4h-9v-9.7h9.2v-16.3h14z"/></g><g fill="none" stroke-miterlimit="10" stroke-width="3"><path d="m236 218.5h154z" stroke="#757679"/><path d="m236 1.5h154z" stroke="#606060"/></g></svg>