<svg enable-background="new 0 0 512 512" viewBox="0 0 512 512" xmlns="http://www.w3.org/2000/svg"><path d="m323.8 127 131.5-77.7-244.9 254-121.8-37.2 159-94zm-86.4 27.9-178.5 105.5c-3.4 2-5.3 5.9-4.8 9.8s3.2 7.2 7 8.4l145.5 44.5 64.2 116.8c.1.1.1.2.2.3 1.1 1.8 2.7 3.2 4.7 4.1 1.3.5 2.6.8 3.9.8 2.6 0 5.1-1 7-2.8l73.8-72.1 138.8 42.5c1 .3 1.9.4 2.9.4 2.1 0 4.2-.7 5.9-2 2.5-1.9 4.1-4.9 4.1-8v-393.1c0-3.6-1.9-6.9-5-8.7-3.1-1.8-7-1.8-10 .1l-183.4 108.4zm33.9 174.3c-1.2 1.7-1.8 3.7-1.8 5.7v61.2l-43.8-79.8 193.9-201.2zm18.2 82.1v-62.9l49 15zm202.5-21.8-196.5-60.1 196.5-283.7z" opacity=".2" stroke="#000" stroke-miterlimit="10" stroke-width="5"/><path d="m164.4 347.6c-3.9-3.9-10.2-3.9-14.1 0l-93.4 93.4c-3.9 3.9-3.9 10.2 0 14.1 2 2 4.5 2.9 7.1 2.9s5.1-1 7.1-2.9l93.4-93.4c3.8-3.9 3.8-10.2-.1-14.1z" opacity=".2"/><path d="m40.1 471.9c-3.9-3.9-10.2-3.9-14.1 0l-23 23c-3.9 3.9-3.9 10.2 0 14.1 2 2 4.5 2.9 7.1 2.9s5.1-1 7.1-2.9l23-23c3.8-3.8 3.8-10.2-.1-14.1z" opacity=".2"/><path d="m142.6 494.3c-1.9-1.9-4.4-2.9-7.1-2.9-2.6 0-5.2 1.1-7.1 2.9s-2.9 4.4-2.9 7.1c0 2.6 1.1 5.2 2.9 7.1 1.9 1.9 4.4 2.9 7.1 2.9s5.2-1.1 7.1-2.9c1.9-1.9 2.9-4.4 2.9-7.1.1-2.6-1-5.2-2.9-7.1z" opacity=".2"/><path d="m217.1 419.9c-3.9-3.9-10.2-3.9-14.1 0l-49.4 49.4c-3.9 3.9-3.9 10.2 0 14.1 2 2 4.5 2.9 7.1 2.9s5.1-1 7.1-2.9l49.4-49.4c3.8-3.8 3.8-10.2-.1-14.1z" opacity=".2"/><path d="m387.7 416.1c-3.9-3.9-10.2-3.9-14.1 0l-49.6 49.6c-3.9 3.9-3.9 10.2 0 14.1 2 2 4.5 2.9 7.1 2.9s5.1-1 7.1-2.9l49.6-49.6c3.8-3.8 3.8-10.2-.1-14.1z" opacity=".2"/></svg>