<svg enable-background="new 0 0 480 480" viewBox="0 0 480 480" xmlns="http://www.w3.org/2000/svg"><g opacity=".2"><path d="m440 72h-400c-22.1 0-40 17.9-40 40v256c0 22.1 17.9 40 40 40h400c2.2 0 4.5-.2 6.7-.6 19.2-3.2 33.3-19.9 33.3-39.4v-256c0-22.1-17.9-40-40-40zm-400 320c-12.4 0-22.8-9.5-23.9-21.9l159.5-104.3 162.2 126.2zm424-24c0 11.7-8.5 21.8-20.1 23.7-1.3.2-2.6.3-3.9.3h-76.1l-106-82.5 94.8-75.8 111.3 66.8zm0-86.1-107.9-64.7c-2.9-1.7-6.5-1.5-9.1.6l-102.1 81.7-64-49.7c-2.7-2.1-6.4-2.2-9.3-.4l-155.6 101.7v-239.1c0-13.3 10.7-24 24-24h400c13.3 0 24 10.7 24 24z"/><path d="m240 120c-26.5 0-48 21.5-48 48s21.5 48 48 48 48-21.5 48-48-21.5-48-48-48zm0 80c-17.7 0-32-14.3-32-32s14.3-32 32-32 32 14.3 32 32-14.3 32-32 32z"/></g></svg>