<svg fill="none" height="359" viewBox="0 0 1727 359" width="1727" xmlns="http://www.w3.org/2000/svg"><path d="m75.48 169.56v-102.72h58.56c8.64 0 16.96.64 24.96 1.92s15.04 3.84 21.12 7.68c6.08 3.52 10.88 8.64 14.4 15.36 3.84 6.72 5.76 15.52 5.76 26.4s-1.92 19.68-5.76 26.4c-3.52 6.72-8.32 12-14.4 15.84-6.08 3.52-13.12 5.92-21.12 7.2s-16.32 1.92-24.96 1.92zm-75.359997-161.28002v342.72002h75.359997v-122.88h79.2c21.44 0 39.68-3.04 54.72-9.12 15.04-6.4 27.2-14.72 36.48-24.96 9.6-10.24 16.48-21.92 20.64-35.04 4.48-13.44 6.72-27.04 6.72-40.8 0-14.08-2.24-27.68-6.72-40.8-4.16-13.12-11.04-24.8-20.64-35.04-9.28-10.24-21.44-18.4-36.48-24.48-15.04-6.4-33.28-9.60002-54.72-9.60002zm395.515997 155.04002v-96.48h82.56c17.28 0 30.24 3.84 38.88 11.52 8.64 7.36 12.96 19.36 12.96 36 0 17.28-4.32 29.76-12.96 37.44s-21.6 11.52-38.88 11.52zm-75.36-155.04002v342.72002h75.36v-133.92h75.36c18.88 0 32.48 4.16 40.8 12.48s13.76 21.44 16.32 39.36c1.92 13.76 3.36 28.16 4.32 43.2s3.52 28 7.68 38.88h75.36c-3.52-4.8-6.24-10.56-8.16-17.28-1.6-7.04-2.88-14.4-3.84-22.08-.64-7.68-1.12-15.2-1.44-22.56s-.64-13.76-.96-19.2c-.64-8.64-1.92-17.28-3.84-25.92-1.6-8.64-4.32-16.48-8.16-23.52-3.84-7.36-8.8-13.6-14.88-18.72-6.08-5.44-13.76-9.44-23.04-12v-.96c19.2-7.68 32.96-18.88 41.28-33.6 8.64-14.72 12.96-32.16 12.96-52.32 0-13.12-2.4-25.28-7.2-36.48-4.48-11.52-11.2-21.6-20.16-30.24-8.64-8.64-19.2-15.36-31.68-20.16-12.16-5.12-25.92-7.68002-41.28-7.68002zm346.407 0v342.72002h75.36v-342.72002zm192.922 228.96002h-72.96c-.32 21.12 3.52 39.36 11.52 54.72s18.72 28 32.16 37.92c13.76 9.92 29.44 17.12 47.04 21.6 17.92 4.8 36.32 7.2 55.2 7.2 23.36 0 43.84-2.72 61.44-8.16 17.925-5.44 32.805-12.96 44.645-22.56 12.16-9.92 21.28-21.6 27.36-35.04s9.11-28 9.11-43.68c0-19.2-4.15-34.88-12.47-47.04-8-12.48-17.6-22.4-28.8-29.76s-22.56-12.64-34.085-15.84c-11.2-3.52-20-5.92-26.4-7.2-21.44-5.44-38.88-9.92-52.32-13.44-13.12-3.52-23.52-7.04-31.2-10.56-7.36-3.52-12.32-7.36-14.88-11.52s-3.84-9.6-3.84-16.32c0-7.36 1.6-13.44 4.8-18.24s7.2-8.8 12-12c5.12-3.2 10.72-5.44 16.8-6.72s12.16-1.92 18.24-1.92c9.28 0 17.76.8 25.44 2.4 8 1.6 15.04 4.32 21.12 8.16s10.88 9.12 14.4 15.84c3.84 6.72 6.08 15.2 6.72 25.44h72.965c0-19.84-3.84-36.64-11.52-50.4-7.36-14.08-17.44-25.6-30.25-34.56-12.79-8.96-27.515-15.36-44.155-19.20003-16.32-4.15998-33.44-6.239973-51.36-6.239973-15.36 0-30.72 2.079993-46.08 6.239973-15.36 4.16003-29.12 10.56003-41.28 19.20003s-22.08 19.52-29.76 32.64c-7.36 12.8-11.04 28-11.04 45.6 0 15.68 2.88 29.12 8.64 40.32 6.08 10.88 13.92 20 23.52 27.36s20.48 13.44 32.64 18.24c12.16 4.48 24.64 8.32 37.44 11.52 12.48 3.52 24.8 6.72 36.96 9.6s23.04 6.24 32.64 10.08 17.28 8.64 23.04 14.4c6.08 5.76 9.125 13.28 9.125 22.56 0 8.64-2.245 15.84-6.725 21.6-4.48 5.44-10.08 9.76-16.8 12.96s-13.92 5.44-21.6 6.72c-7.68.96-14.88 1.44-21.6 1.44-9.92 0-19.52-1.12-28.8-3.36-9.28-2.56-17.44-6.24-24.48-11.04-6.72-5.12-12.16-11.68-16.32-19.68s-6.24-17.76-6.24-29.28zm260.355-228.96002v342.72002h260.16v-63.36h-184.8v-84h166.08v-58.56h-166.08v-73.44h180.96v-63.36002zm386.61 155.04002v-96.48h82.56c17.28 0 30.24 3.84 38.88 11.52 8.64 7.36 12.96 19.36 12.96 36 0 17.28-4.32 29.76-12.96 37.44s-21.6 11.52-38.88 11.52zm-75.36-155.04002v342.72002h75.36v-133.92h75.36c18.88 0 32.48 4.16 40.8 12.48s13.76 21.44 16.32 39.36c1.92 13.76 3.36 28.16 4.32 43.2s3.52 28 7.68 38.88h75.36c-3.52-4.8-6.24-10.56-8.16-17.28-1.6-7.04-2.88-14.4-3.84-22.08-.64-7.68-1.12-15.2-1.44-22.56s-.64-13.76-.96-19.2c-.64-8.64-1.92-17.28-3.84-25.92-1.6-8.64-4.32-16.48-8.16-23.52-3.84-7.36-8.8-13.6-14.88-18.72-6.08-5.44-13.76-9.44-23.04-12v-.96c19.2-7.68 32.96-18.88 41.28-33.6 8.64-14.72 12.96-32.16 12.96-52.32 0-13.12-2.4-25.28-7.2-36.48-4.48-11.52-11.2-21.6-20.16-30.24-8.64-8.64-19.2-15.36-31.68-20.16-12.16-5.12-25.92-7.68002-41.28-7.68002z" fill="#2d3037"/></svg>