<svg fill="none" height="449" viewBox="0 0 2137 449" width="2137" xmlns="http://www.w3.org/2000/svg"><path d="m94.8617 212.2v-128.4h73.2003c10.8 0 21.2.8 31.2 2.4s18.8 4.8 26.4 9.6c7.6 4.4 13.6 10.8 18 19.2 4.8 8.4 7.2 19.4 7.2 33s-2.4 24.6-7.2 33c-4.4 8.4-10.4 15-18 19.8-7.6 4.4-16.4 7.4-26.4 9s-20.4 2.4-31.2 2.4zm-94.199978-201.6v428.4h94.199978v-153.6h99.0003c26.8 0 49.6-3.8 68.4-11.4 18.8-8 34-18.4 45.6-31.2 12-12.8 20.6-27.4 25.8-43.8 5.6-16.8 8.4-33.8 8.4-51 0-17.6-2.8-34.6-8.4-51-5.2-16.4-13.8-31-25.8-43.8-11.6-12.8-26.8-23-45.6-30.6-18.8-8-41.6-12-68.4-12zm494.395278 193.8v-120.6h103.2c21.6 0 37.8 4.8 48.6 14.4 10.8 9.2 16.2 24.2 16.2 45 0 21.6-5.4 37.2-16.2 46.8s-27 14.4-48.6 14.4zm-94.2-193.8v428.4h94.2v-167.4h94.2c23.6 0 40.6 5.2 51 15.6s17.2 26.8 20.4 49.2c2.4 17.2 4.2 35.2 5.4 54s4.4 35 9.6 48.6h94.2c-4.4-6-7.8-13.2-10.2-21.6-2-8.8-3.6-18-4.8-27.6-.8-9.6-1.4-19-1.8-28.2s-.8-17.2-1.2-24c-.8-10.8-2.4-21.6-4.8-32.4-2-10.8-5.4-20.6-10.2-29.4-4.8-9.2-11-17-18.6-23.4-7.6-6.8-17.2-11.8-28.8-15v-1.2c24-9.6 41.2-23.6 51.6-42 10.8-18.4 16.2-40.2 16.2-65.4 0-16.4-3-31.6-9-45.6-5.6-14.4-14-27-25.2-37.8-10.8-10.8-24-19.2-39.6-25.2-15.2-6.4-32.4-9.6-51.6-9.6zm508.608 216c0-18.8 2-37 6-54.6 4.4-17.6 11.2-33.2 20.4-46.8 9.2-14 21.2-25 36-33 14.8-8.4 32.795-12.6 53.995-12.6s39.2 4.2 54 12.6c14.8 8 26.8 19 36 33 9.2 13.6 15.8 29.2 19.8 46.8 4.4 17.6 6.6 35.8 6.6 54.6 0 18-2.2 35.6-6.6 52.8-4 16.8-10.6 32-19.8 45.6s-21.2 24.6-36 33c-14.8 8-32.8 12-54 12s-39.195-4-53.995-12c-14.8-8.4-26.8-19.4-36-33s-16-28.8-20.4-45.6c-4-17.2-6-34.8-6-52.8zm-94.2 0c0 31.2 4.8 60.4 14.4 87.6 9.6 26.8 23.4 50.2 41.4 70.2s40 35.8 66 47.4c26.4 11.2 56 16.8 88.795 16.8 33.2 0 62.8-5.6 88.8-16.8 26-11.6 48-27.4 66-47.4s31.8-43.4 41.4-70.2c9.6-27.2 14.4-56.4 14.4-87.6 0-32-4.8-61.6-14.4-88.8-9.6-27.6-23.4-51.6-41.4-72s-40-36.4-66-48c-26-11.60001-55.6-17.400004-88.8-17.400004-32.795 0-62.395 5.799994-88.795 17.400004-26 11.6-48 27.6-66 48s-31.8 44.4-41.4 72c-9.6 27.2-14.4 56.8-14.4 88.8zm485.595-216v428.4h94.2v-177h179.4v-73.2h-179.4v-99h207v-79.2zm355.66 0v428.4h94.2v-428.4zm176.95 0v428.4h303v-79.2h-208.8v-349.2z" fill="#2d3037"/></svg>