<svg fill="none" height="81" viewBox="0 0 512 81" width="512" xmlns="http://www.w3.org/2000/svg"><g fill="#f60"><path d="m34 59h393v2h-393z"/><path d="m512 81h87v2h-87z" transform="matrix(-1 0 0 -1 1024 162)"/><path d="m427 59h20v2h-20z" transform="matrix(0 1 -1 0 486 -368)"/></g><path d="m155.896 7.58v13.71c0 1.1.15 2.15.45 3.15.32.98.81 1.84 1.47 2.58.68.74 1.54 1.33 2.58 1.77 1.06.42 2.33.63 3.81.63 1.5 0 2.77-.21 3.81-.63 1.06-.44 1.92-1.03 2.58-1.77.68-.74 1.17-1.6 1.47-2.58.32-1 .48-2.05.48-3.15v-13.71h-2.04v13.26c0 1.24-.14 2.3-.42 3.18-.28.86-.69 1.57-1.23 2.13-.54.54-1.2.94-1.98 1.2-.78.24-1.67.36-2.67.36-.98 0-1.86-.12-2.64-.36-.78-.26-1.44-.66-1.98-1.2-.54-.56-.95-1.27-1.23-2.13-.28-.88-.42-1.94-.42-3.18v-13.26zm34.007 21.42v-21.42h-1.89v8.88h-.06c-.2-.56-.49-1.05-.87-1.47-.36-.42-.78-.77-1.26-1.05-.48-.3-1-.52-1.56-.66-.54-.14-1.1-.21-1.68-.21-1.18 0-2.21.22-3.09.66-.86.44-1.58 1.04-2.16 1.8-.58.74-1.01 1.61-1.29 2.61-.28.98-.42 2.02-.42 3.12s.14 2.15.42 3.15c.28.98.71 1.85 1.29 2.61.58.74 1.3 1.33 2.16 1.77.88.42 1.91.63 3.09.63.56 0 1.12-.08 1.68-.24.58-.16 1.12-.38 1.62-.66.5-.3.94-.66 1.32-1.08.4-.42.7-.88.9-1.38h.06v2.94zm-12.39-7.74c0-.8.09-1.59.27-2.37.2-.8.5-1.51.9-2.13.42-.62.95-1.12 1.59-1.5.64-.4 1.41-.6 2.31-.6 1 0 1.84.2 2.52.6.7.38 1.26.88 1.68 1.5.44.62.75 1.33.93 2.13.2.78.3 1.57.3 2.37s-.1 1.6-.3 2.4c-.18.78-.49 1.48-.93 2.1-.42.62-.98 1.13-1.68 1.53-.68.38-1.52.57-2.52.57-.9 0-1.67-.19-2.31-.57-.64-.4-1.17-.91-1.59-1.53-.4-.62-.7-1.32-.9-2.1-.18-.8-.27-1.6-.27-2.4zm29.616 7.74v-21.42h-1.89v8.88h-.06c-.2-.56-.49-1.05-.87-1.47-.36-.42-.78-.77-1.26-1.05-.48-.3-1-.52-1.56-.66-.54-.14-1.1-.21-1.68-.21-1.18 0-2.21.22-3.09.66-.86.44-1.58 1.04-2.16 1.8-.58.74-1.01 1.61-1.29 2.61-.28.98-.42 2.02-.42 3.12s.14 2.15.42 3.15c.28.98.71 1.85 1.29 2.61.58.74 1.3 1.33 2.16 1.77.88.42 1.91.63 3.09.63.56 0 1.12-.08 1.68-.24.58-.16 1.12-.38 1.62-.66.5-.3.94-.66 1.32-1.08.4-.42.7-.88.9-1.38h.06v2.94zm-12.39-7.74c0-.8.09-1.59.27-2.37.2-.8.5-1.51.9-2.13.42-.62.95-1.12 1.59-1.5.64-.4 1.41-.6 2.31-.6 1 0 1.84.2 2.52.6.7.38 1.26.88 1.68 1.5.44.62.75 1.33.93 2.13.2.78.3 1.57.3 2.37s-.1 1.6-.3 2.4c-.18.78-.49 1.48-.93 2.1-.42.62-.98 1.13-1.68 1.53-.68.38-1.52.57-2.52.57-.9 0-1.67-.19-2.31-.57-.64-.4-1.17-.91-1.59-1.53-.4-.62-.7-1.32-.9-2.1-.18-.8-.27-1.6-.27-2.4zm15.817-3h1.89c.04-1.26.44-2.17 1.2-2.73.76-.58 1.74-.87 2.94-.87.56 0 1.08.05 1.56.15.5.08.93.24 1.29.48.38.24.67.57.87.99.22.4.33.92.33 1.56 0 .42-.06.76-.18 1.02-.1.26-.25.47-.45.63-.2.14-.45.24-.75.3s-.65.11-1.05.15c-1.02.12-2.03.25-3.03.39-.98.12-1.87.34-2.67.66-.78.32-1.41.79-1.89 1.41-.48.6-.72 1.44-.72 2.52 0 .78.13 1.46.39 2.04.28.56.65 1.03 1.11 1.41.48.36 1.03.62 1.65.78.64.18 1.32.27 2.04.27.76 0 1.41-.07 1.95-.21.56-.14 1.05-.34 1.47-.6.44-.26.83-.58 1.17-.96.36-.4.71-.85 1.05-1.35h.06c0 .4.02.77.06 1.11.06.32.17.6.33.84s.38.43.66.57c.3.12.69.18 1.17.18.26 0 .47-.01.63-.03.18-.02.38-.05.6-.09v-1.59c-.18.08-.38.12-.6.12-.74 0-1.11-.38-1.11-1.14v-8.22c0-1.04-.17-1.88-.51-2.52-.34-.66-.78-1.17-1.32-1.53s-1.15-.6-1.83-.72c-.68-.14-1.36-.21-2.04-.21-.9 0-1.72.1-2.46.3s-1.39.51-1.95.93c-.54.42-.97.96-1.29 1.62s-.51 1.44-.57 2.34zm10.08 2.28v2.46c0 .76-.15 1.44-.45 2.04-.28.6-.67 1.11-1.17 1.53-.48.42-1.05.74-1.71.96s-1.35.33-2.07.33c-.44 0-.87-.07-1.29-.21s-.79-.34-1.11-.6c-.32-.28-.58-.6-.78-.96-.18-.38-.27-.81-.27-1.29 0-.76.22-1.34.66-1.74.46-.42 1.04-.74 1.74-.96s1.47-.38 2.31-.48c.86-.12 1.69-.25 2.49-.39.26-.04.56-.11.9-.21s.57-.26.69-.48zm5.627-7.02v15.48h1.89v-9.03c.02-.76.14-1.46.36-2.1.24-.66.56-1.22.96-1.68.42-.48.92-.85 1.5-1.11.6-.28 1.28-.42 2.04-.42s1.39.12 1.89.36c.52.24.93.57 1.23.99s.51.92.63 1.5c.12.56.18 1.17.18 1.83v9.66h1.89v-9.96c0-.92-.09-1.75-.27-2.49s-.49-1.36-.93-1.86c-.44-.52-1.03-.92-1.77-1.2-.72-.28-1.62-.42-2.7-.42-1.1 0-2.11.29-3.03.87-.92.56-1.56 1.31-1.92 2.25h-.06v-2.67zm16.113 0v15.48h1.89v-9.03c.02-.76.14-1.46.36-2.1.24-.66.56-1.22.96-1.68.42-.48.92-.85 1.5-1.11.6-.28 1.28-.42 2.04-.42s1.39.12 1.89.36c.52.24.93.57 1.23.99s.51.92.63 1.5c.12.56.18 1.17.18 1.83v9.66h1.89v-9.96c0-.92-.09-1.75-.27-2.49s-.49-1.36-.93-1.86c-.44-.52-1.03-.92-1.77-1.2-.72-.28-1.62-.42-2.7-.42-1.1 0-2.11.29-3.03.87-.92.56-1.56 1.31-1.92 2.25h-.06v-2.67zm27.273 6.66h-10.02c.08-.7.24-1.38.48-2.04.26-.68.6-1.27 1.02-1.77.42-.52.93-.93 1.53-1.23.6-.32 1.29-.48 2.07-.48.76 0 1.44.16 2.04.48.6.3 1.11.71 1.53 1.23.42.5.74 1.08.96 1.74.24.66.37 1.35.39 2.07zm-10.02 1.59h11.91c.04-1.08-.06-2.14-.3-3.18-.24-1.06-.64-1.99-1.2-2.79-.54-.82-1.25-1.48-2.13-1.98s-1.94-.75-3.18-.75c-1.22 0-2.28.24-3.18.72-.88.46-1.6 1.08-2.16 1.86-.56.76-.98 1.63-1.26 2.61-.26.98-.39 1.98-.39 3 0 1.1.13 2.15.39 3.15.28.98.7 1.85 1.26 2.61.56.74 1.28 1.33 2.16 1.77.9.42 1.96.63 3.18.63 1.96 0 3.47-.48 4.53-1.44 1.08-.96 1.82-2.32 2.22-4.08h-1.89c-.3 1.2-.84 2.16-1.62 2.88s-1.86 1.08-3.24 1.08c-.9 0-1.67-.19-2.31-.57s-1.17-.86-1.59-1.44-.73-1.23-.93-1.95c-.18-.74-.27-1.45-.27-2.13zm14.477-14.19v21.42h1.89v-21.42zm14.777 10.47h1.89c-.04-.84-.21-1.57-.51-2.19s-.71-1.14-1.23-1.56c-.5-.42-1.09-.73-1.77-.93-.66-.2-1.38-.3-2.16-.3-.68 0-1.37.08-2.07.24-.68.16-1.3.41-1.86.75s-1.02.79-1.38 1.35c-.34.56-.51 1.23-.51 2.01 0 .66.11 1.22.33 1.68.22.44.52.82.9 1.14.4.3.86.56 1.38.78.52.2 1.09.38 1.71.54l2.43.54c.42.1.83.22 1.23.36.42.14.79.32 1.11.54.32.2.57.46.75.78.2.3.3.68.3 1.14 0 .54-.14 1-.42 1.38-.26.36-.6.66-1.02.9s-.88.41-1.38.51c-.48.1-.95.15-1.41.15-1.26 0-2.32-.32-3.18-.96-.84-.66-1.3-1.63-1.38-2.91h-1.89c.16 1.9.8 3.28 1.92 4.14 1.14.86 2.62 1.29 4.44 1.29.72 0 1.45-.08 2.19-.24s1.4-.42 1.98-.78c.6-.38 1.09-.86 1.47-1.44.38-.6.57-1.32.57-2.16 0-.68-.13-1.27-.39-1.77s-.6-.92-1.02-1.26c-.4-.34-.87-.61-1.41-.81-.52-.22-1.05-.37-1.59-.45l-2.52-.57c-.32-.08-.67-.18-1.05-.3-.38-.14-.73-.31-1.05-.51s-.59-.44-.81-.72c-.2-.3-.3-.66-.3-1.08 0-.5.11-.92.33-1.26s.51-.61.87-.81c.36-.22.75-.37 1.17-.45.44-.1.87-.15 1.29-.15.54 0 1.05.07 1.53.21.48.12.9.32 1.26.6.38.28.68.64.9 1.08.22.42.34.92.36 1.5zm16.303 2.13h-10.02c.08-.7.24-1.38.48-2.04.26-.68.6-1.27 1.02-1.77.42-.52.93-.93 1.53-1.23.6-.32 1.29-.48 2.07-.48.76 0 1.44.16 2.04.48.6.3 1.11.71 1.53 1.23.42.5.74 1.08.96 1.74.24.66.37 1.35.39 2.07zm-10.02 1.59h11.91c.04-1.08-.06-2.14-.3-3.18-.24-1.06-.64-1.99-1.2-2.79-.54-.82-1.25-1.48-2.13-1.98s-1.94-.75-3.18-.75c-1.22 0-2.28.24-3.18.72-.88.46-1.6 1.08-2.16 1.86-.56.76-.98 1.63-1.26 2.61-.26.98-.39 1.98-.39 3 0 1.1.13 2.15.39 3.15.28.98.7 1.85 1.26 2.61.56.74 1.28 1.33 2.16 1.77.9.42 1.96.63 3.18.63 1.96 0 3.47-.48 4.53-1.44 1.08-.96 1.82-2.32 2.22-4.08h-1.89c-.3 1.2-.84 2.16-1.62 2.88s-1.86 1.08-3.24 1.08c-.9 0-1.67-.19-2.31-.57s-1.17-.86-1.59-1.44-.73-1.23-.93-1.95c-.18-.74-.27-1.45-.27-2.13z" fill="#fff"/></svg>