<svg fill="none" height="81" viewBox="0 0 282 81" width="282" xmlns="http://www.w3.org/2000/svg"><path d="m0 67h282v2h-282z" fill="#f60"/><path d="m161.308 7.58 7.92 21.42h2.37l7.95-21.42h-2.16l-6.9 19.17h-.06l-6.96-19.17zm31.553 14.19h11.64c0-1.12-.11-2.2-.33-3.24-.22-1.06-.59-1.99-1.11-2.79-.52-.82-1.21-1.47-2.07-1.95-.84-.48-1.9-.72-3.18-.72-.56 0-1.12.07-1.68.21-.56.12-1.09.32-1.59.6-.48.26-.91.59-1.29.99s-.67.87-.87 1.41h-.06c-.1-.66-.33-1.2-.69-1.62-.34-.42-.76-.74-1.26-.96-.48-.24-1.01-.4-1.59-.48-.56-.1-1.1-.15-1.62-.15-.9 0-1.72.1-2.46.3s-1.39.51-1.95.93c-.54.42-.97.96-1.29 1.62s-.51 1.44-.57 2.34h1.89c.04-1.26.44-2.17 1.2-2.73.76-.58 1.74-.87 2.94-.87.56 0 1.08.05 1.56.15.5.08.93.24 1.29.48.38.24.67.57.87.99.22.4.33.92.33 1.56 0 .42-.06.76-.18 1.02-.1.26-.25.47-.45.63-.2.14-.45.24-.75.3s-.65.11-1.05.15c-1.02.12-2.03.25-3.03.39-.98.12-1.87.34-2.67.66-.78.32-1.41.79-1.89 1.41-.48.6-.72 1.44-.72 2.52 0 .78.13 1.46.39 2.04.28.56.65 1.03 1.11 1.41.48.36 1.03.62 1.65.78.64.18 1.32.27 2.04.27.68 0 1.38-.08 2.1-.24s1.38-.4 1.98-.72c.62-.32 1.14-.72 1.56-1.2.44-.48.72-1.05.84-1.71h.06c.46 1.32 1.17 2.3 2.13 2.94.98.62 2.16.93 3.54.93 1.82 0 3.3-.46 4.44-1.38 1.14-.94 1.91-2.29 2.31-4.05h-1.89c-.28 1.22-.8 2.17-1.56 2.85-.74.68-1.75 1.02-3.03 1.02-.9 0-1.68-.16-2.34-.48-.66-.34-1.2-.78-1.62-1.32-.42-.56-.72-1.21-.9-1.95s-.24-1.52-.18-2.34zm-1.89-1.23v2.46c0 .76-.15 1.44-.45 2.04-.28.6-.67 1.11-1.17 1.53-.48.42-1.05.74-1.71.96s-1.35.33-2.07.33c-.44 0-.87-.07-1.29-.21s-.79-.34-1.11-.6c-.32-.28-.58-.6-.78-.96-.18-.38-.27-.81-.27-1.29 0-.76.22-1.34.66-1.74.46-.42 1.04-.74 1.74-.96s1.47-.38 2.31-.48c.86-.12 1.69-.25 2.49-.39.26-.04.56-.11.9-.21s.57-.26.69-.48zm11.64-.36h-9.75c-.02-.72.07-1.41.27-2.07.22-.68.54-1.27.96-1.77.42-.52.93-.93 1.53-1.23.62-.3 1.32-.45 2.1-.45.76 0 1.44.16 2.04.48.6.3 1.11.71 1.53 1.23.42.5.74 1.08.96 1.74.24.66.36 1.35.36 2.07zm4.564-6.66v15.48h1.89v-8.25c0-.82.14-1.57.42-2.25.28-.7.67-1.3 1.17-1.8.52-.5 1.13-.88 1.83-1.14.7-.28 1.48-.4 2.34-.36v-1.89c-1.4-.06-2.61.25-3.63.93-1 .68-1.74 1.65-2.22 2.91h-.06v-3.63zm22.555 15.48v-21.42h-1.89v8.88h-.06c-.2-.56-.49-1.05-.87-1.47-.36-.42-.78-.77-1.26-1.05-.48-.3-1-.52-1.56-.66-.54-.14-1.1-.21-1.68-.21-1.18 0-2.21.22-3.09.66-.86.44-1.58 1.04-2.16 1.8-.58.74-1.01 1.61-1.29 2.61-.28.98-.42 2.02-.42 3.12s.14 2.15.42 3.15c.28.98.71 1.85 1.29 2.61.58.74 1.3 1.33 2.16 1.77.88.42 1.91.63 3.09.63.56 0 1.12-.08 1.68-.24.58-.16 1.12-.38 1.62-.66.5-.3.94-.66 1.32-1.08.4-.42.7-.88.9-1.38h.06v2.94zm-12.39-7.74c0-.8.09-1.59.27-2.37.2-.8.5-1.51.9-2.13.42-.62.95-1.12 1.59-1.5.64-.4 1.41-.6 2.31-.6 1 0 1.84.2 2.52.6.7.38 1.26.88 1.68 1.5.44.62.75 1.33.93 2.13.2.78.3 1.57.3 2.37s-.1 1.6-.3 2.4c-.18.78-.49 1.48-.93 2.1-.42.62-.98 1.13-1.68 1.53-.68.38-1.52.57-2.52.57-.9 0-1.67-.19-2.31-.57-.64-.4-1.17-.91-1.59-1.53-.4-.62-.7-1.32-.9-2.1-.18-.8-.27-1.6-.27-2.4zm16.027-13.68v3.03h1.89v-3.03zm0 5.94v15.48h1.89v-15.48zm16.637 6.66h-10.02c.08-.7.24-1.38.48-2.04.26-.68.6-1.27 1.02-1.77.42-.52.93-.93 1.53-1.23.6-.32 1.29-.48 2.07-.48.76 0 1.44.16 2.04.48.6.3 1.11.71 1.53 1.23.42.5.74 1.08.96 1.74.24.66.37 1.35.39 2.07zm-10.02 1.59h11.91c.04-1.08-.06-2.14-.3-3.18-.24-1.06-.64-1.99-1.2-2.79-.54-.82-1.25-1.48-2.13-1.98s-1.94-.75-3.18-.75c-1.22 0-2.28.24-3.18.72-.88.46-1.6 1.08-2.16 1.86-.56.76-.98 1.63-1.26 2.61-.26.98-.39 1.98-.39 3 0 1.1.13 2.15.39 3.15.28.98.7 1.85 1.26 2.61.56.74 1.28 1.33 2.16 1.77.9.42 1.96.63 3.18.63 1.96 0 3.47-.48 4.53-1.44 1.08-.96 1.82-2.32 2.22-4.08h-1.89c-.3 1.2-.84 2.16-1.62 2.88s-1.86 1.08-3.24 1.08c-.9 0-1.67-.19-2.31-.57s-1.17-.86-1.59-1.44-.73-1.23-.93-1.95c-.18-.74-.27-1.45-.27-2.13zm14.447-8.25v15.48h1.89v-8.25c0-.82.14-1.57.42-2.25.28-.7.67-1.3 1.17-1.8.52-.5 1.13-.88 1.83-1.14.7-.28 1.48-.4 2.34-.36v-1.89c-1.4-.06-2.61.25-3.63.93-1 .68-1.74 1.65-2.22 2.91h-.06v-3.63z" fill="#fff"/></svg>